<svg width="1720" height="775" viewBox="0 0 1720 775" fill="none" xmlns="http://www.w3.org/2000/svg">
<path d="M1720 775H5.90166e-06V145.97C-0.0027667 136.15 0.971391 126.354 2.909 116.715C4.78973 107.397 7.58336 98.273 11.252 89.4674C14.8408 80.8646 19.2604 72.6087 24.452 64.8095C29.5671 57.131 35.4207 49.9377 41.935 43.3257C48.3942 36.7733 55.4899 30.8376 63.124 25.6006C70.753 20.3714 78.8996 15.8881 87.444 12.2167C104.991 4.68129 123.977 0.794899 143.174 0.809028H143.75C179.916 0.725803 501.34 0 648.564 0C690.496 0 714.864 0.0590239 720.999 0.17612C728.94 0.342813 736.817 1.59054 744.399 3.88256C751.279 5.95107 757.88 8.80434 764.064 12.3822C769.372 15.425 774.308 19.04 778.775 23.158C782.184 26.2071 785.067 29.7639 787.316 33.6938C787.686 34.3213 788.203 34.8567 788.824 35.2576C796.514 45.4489 806.711 53.6208 818.491 59.0321C824.761 61.9714 831.356 64.21 838.149 65.7046C852.568 68.8636 867.534 68.8557 881.949 65.6814C888.771 64.1728 895.393 61.9133 901.684 58.9469C913.503 53.4884 923.716 45.2439 931.384 34.9702C931.824 34.6093 932.196 34.1775 932.484 33.6938C935.122 29.4649 938.487 25.7033 942.434 22.5715C947.446 18.4414 952.887 14.8247 958.669 11.7793C965.029 8.37369 971.74 5.62037 978.691 3.56418C985.594 1.47064 992.768 0.330372 1000 0.177095C1062.26 0.80419 1571.68 0.811937 1576.82 0.811937C1596.02 0.797886 1615.01 4.68427 1632.55 12.2196C1641.1 15.8913 1649.24 20.3745 1656.87 25.6035C1664.51 30.8405 1671.6 36.7762 1678.06 43.3286C1684.58 49.9407 1690.43 57.134 1695.54 64.8124C1700.74 72.6116 1705.16 80.8675 1708.74 89.4703C1712.41 98.2759 1715.21 107.4 1717.09 116.718C1719.03 126.356 1720 136.151 1720 145.97V775Z" fill="#3C3B55"/>
</svg>
