<svg width="29" height="24" viewBox="0 0 29 24" fill="none" xmlns="http://www.w3.org/2000/svg">
<path d="M28.5538 3.17147C27.51 3.63397 26.3888 3.94647 25.21 4.08772C26.4263 3.35996 27.3362 2.21455 27.77 0.865218C26.6273 1.54396 25.3767 2.02171 24.0725 2.27772C23.1955 1.3413 22.0338 0.720626 20.7679 0.512061C19.502 0.303496 18.2026 0.518708 17.0716 1.12428C15.9405 1.72986 15.041 2.69192 14.5127 3.8611C13.9844 5.03027 13.8569 6.34116 14.15 7.59022C11.8346 7.47396 9.56955 6.87215 7.5018 5.82385C5.43404 4.77554 3.60982 3.30417 2.14751 1.50522C1.64751 2.36772 1.36001 3.36772 1.36001 4.43272C1.35946 5.39146 1.59556 6.33552 2.04736 7.18113C2.49917 8.02675 3.15272 8.74777 3.95002 9.28022C3.02536 9.2508 2.12111 9.00095 1.31251 8.55147V8.62647C1.31242 9.97114 1.77756 11.2744 2.62899 12.3152C3.48043 13.356 4.66573 14.0701 5.98377 14.3365C5.12599 14.5686 4.22669 14.6028 3.35377 14.4365C3.72564 15.5935 4.45001 16.6052 5.42547 17.3301C6.40094 18.055 7.57866 18.4567 8.79377 18.479C6.73106 20.0982 4.18362 20.9766 1.56126 20.9727C1.09674 20.9728 0.63261 20.9457 0.171265 20.8915C2.83311 22.6029 5.93169 23.5112 9.09627 23.5077C19.8088 23.5077 25.665 14.6352 25.665 6.94022C25.665 6.69022 25.6588 6.43772 25.6475 6.18772C26.7866 5.36394 27.7699 4.34384 28.5513 3.17522L28.5538 3.17147Z" fill="#AAAAAA"/>
</svg>
