<svg width="31" height="30" viewBox="0 0 31 30" fill="none" xmlns="http://www.w3.org/2000/svg">
<path fill-rule="evenodd" clip-rule="evenodd" d="M9.67542 1.3325C11.144 1.265 11.6122 1.25 15.353 1.25C19.0939 1.25 19.5621 1.26625 21.0294 1.3325C22.4967 1.39875 23.4982 1.6325 24.3746 1.97125C25.2923 2.3175 26.1248 2.85875 26.8134 3.55875C27.5145 4.245 28.0553 5.075 28.4009 5.9925C28.7414 6.8675 28.9743 7.8675 29.0419 9.33C29.1095 10.7987 29.1245 11.2662 29.1245 15C29.1245 18.735 29.1082 19.2025 29.0419 20.6688C28.9755 22.1313 28.7414 23.1313 28.4009 24.0063C28.0553 24.9239 27.5136 25.7552 26.8134 26.4425C26.1248 27.1425 25.2923 27.6825 24.3746 28.0275C23.4982 28.3675 22.4967 28.6 21.0319 28.6675C19.5621 28.735 19.0939 28.75 15.353 28.75C11.6122 28.75 11.144 28.7337 9.67542 28.6675C8.21064 28.6012 7.20907 28.3675 6.33271 28.0275C5.41367 27.6825 4.581 27.1416 3.89265 26.4425C3.19203 25.7558 2.64985 24.9249 2.30392 24.0075C1.96464 23.1325 1.73178 22.1325 1.66417 20.67C1.59657 19.2013 1.58154 18.7337 1.58154 15C1.58154 11.265 1.59782 10.7975 1.66417 9.3325C1.73053 7.8675 1.96464 6.8675 2.30392 5.9925C2.65036 5.0751 3.19296 4.24414 3.8939 3.5575C4.58127 2.85813 5.41311 2.3168 6.33145 1.97125C7.20782 1.6325 8.20938 1.4 9.67417 1.3325H9.67542ZM20.918 3.8075C19.4657 3.74125 19.03 3.7275 15.353 3.7275C11.676 3.7275 11.2404 3.74125 9.7881 3.8075C8.44475 3.86875 7.71611 4.0925 7.23036 4.28125C6.5881 4.53125 6.12864 4.8275 5.64664 5.30875C5.18973 5.75256 4.8381 6.29285 4.61753 6.89C4.42848 7.375 4.20438 8.1025 4.14304 9.44375C4.07669 10.8938 4.06291 11.3287 4.06291 15C4.06291 18.6712 4.07669 19.1062 4.14304 20.5562C4.20438 21.8975 4.42848 22.625 4.61753 23.11C4.83787 23.7063 5.18967 24.2475 5.64664 24.6912C6.09108 25.1475 6.63317 25.4988 7.23036 25.7188C7.71611 25.9075 8.44475 26.1313 9.7881 26.1925C11.2404 26.2588 11.6748 26.2725 15.353 26.2725C19.0313 26.2725 19.4657 26.2588 20.918 26.1925C22.2613 26.1313 22.9899 25.9075 23.4757 25.7188C24.118 25.4688 24.5774 25.1725 25.0594 24.6912C25.5164 24.2475 25.8682 23.7063 26.0885 23.11C26.2776 22.625 26.5017 21.8975 26.563 20.5562C26.6294 19.1062 26.6431 18.6712 26.6431 15C26.6431 11.3287 26.6294 10.8938 26.563 9.44375C26.5017 8.1025 26.2776 7.375 26.0885 6.89C25.8381 6.24875 25.5414 5.79 25.0594 5.30875C24.6149 4.85259 24.0738 4.50151 23.4757 4.28125C22.9899 4.0925 22.2613 3.86875 20.918 3.8075ZM13.594 19.2388C14.5764 19.647 15.6702 19.7021 16.6888 19.3947C17.7073 19.0872 18.5873 18.4361 19.1785 17.5528C19.7697 16.6695 20.0354 15.6086 19.9302 14.5514C19.8251 13.4942 19.3555 12.5062 18.6018 11.7562C18.1214 11.2768 17.5405 10.9098 16.9009 10.6814C16.2613 10.4531 15.5789 10.3692 14.9029 10.4358C14.227 10.5023 13.5742 10.7177 12.9916 11.0664C12.409 11.4151 11.9111 11.8884 11.5337 12.4523C11.1563 13.0162 10.9088 13.6566 10.8091 14.3275C10.7093 14.9983 10.7598 15.6829 10.9568 16.3319C11.1539 16.9809 11.4926 17.5783 11.9486 18.0809C12.4046 18.5835 12.9666 18.979 13.594 19.2388ZM10.3477 10.0025C11.005 9.34622 11.7854 8.82563 12.6442 8.47045C13.503 8.11527 14.4235 7.93247 15.353 7.93247C16.2826 7.93247 17.2031 8.11527 18.0619 8.47045C18.9207 8.82563 19.701 9.34622 20.3583 10.0025C21.0156 10.6588 21.537 11.4379 21.8928 12.2954C22.2485 13.1528 22.4316 14.0719 22.4316 15C22.4316 15.9281 22.2485 16.8472 21.8928 17.7046C21.537 18.5621 21.0156 19.3412 20.3583 19.9975C19.0308 21.3229 17.2304 22.0675 15.353 22.0675C13.4757 22.0675 11.6752 21.3229 10.3477 19.9975C9.02023 18.6721 8.27445 16.8744 8.27445 15C8.27445 13.1256 9.02023 11.3279 10.3477 10.0025ZM24.0015 8.985C24.1644 8.83159 24.2948 8.6471 24.385 8.44247C24.4752 8.23783 24.5233 8.01721 24.5266 7.79366C24.5299 7.57011 24.4882 7.34818 24.404 7.14101C24.3198 6.93384 24.1949 6.74564 24.0365 6.58755C23.8782 6.42946 23.6897 6.3047 23.4822 6.22065C23.2747 6.1366 23.0524 6.09497 22.8285 6.09823C22.6046 6.10149 22.3837 6.14957 22.1787 6.23962C21.9738 6.32967 21.789 6.45987 21.6353 6.6225C21.3365 6.93879 21.1729 7.3589 21.1792 7.79366C21.1856 8.22842 21.3614 8.6436 21.6693 8.95105C21.9773 9.25851 22.3931 9.43404 22.8285 9.44037C23.264 9.44671 23.6847 9.28336 24.0015 8.985Z" fill="white"/>
</svg>
