<svg width="9" height="15" viewBox="0 0 9 15" fill="none" xmlns="http://www.w3.org/2000/svg">
<path d="M8.07869 0.330173C8.28436 0.541647 8.3999 0.828428 8.3999 1.12745C8.3999 1.42648 8.28436 1.71326 8.07869 1.92473L2.64806 7.50681L8.07869 13.0889C8.27853 13.3016 8.38911 13.5864 8.38661 13.8821C8.38411 14.1778 8.26873 14.4606 8.06532 14.6697C7.86191 14.8788 7.58675 14.9974 7.29909 15C7.01144 15.0025 6.73431 14.8889 6.52739 14.6834L0.321118 8.30409C0.115444 8.09261 -9.72748e-05 7.80583 -9.72748e-05 7.50681C-9.72748e-05 7.20778 0.115444 6.921 0.321118 6.70953L6.52739 0.330173C6.73313 0.118763 7.01213 0 7.30304 0C7.59395 0 7.87295 0.118763 8.07869 0.330173Z" fill="#F9BC1A"/>
</svg>
