<svg width="35" height="40" viewBox="0 0 35 40" fill="none" xmlns="http://www.w3.org/2000/svg">
<path d="M7.5 17.5C6.61875 17.5 5.78516 17.6797 5 17.9609V17.5C5 14.7422 7.24219 12.5 10 12.5C11.3805 12.5 12.5 11.3805 12.5 10C12.5 8.61953 11.3828 7.5 10 7.5C4.48594 7.5 0 11.9844 0 17.5V25C0 29.1422 3.35781 32.5 7.5 32.5C11.6422 32.5 15 29.1422 15 25C15 20.8578 11.6406 17.5 7.5 17.5ZM27.5 17.5C26.6187 17.5 25.7852 17.6801 25 17.9593V17.5C25 14.7422 27.2422 12.5 30 12.5C31.3805 12.5 32.5 11.3805 32.5 10C32.5 8.61953 31.3805 7.5 30 7.5C24.4859 7.5 20 11.9859 20 17.5V25C20 29.1422 23.3578 32.5 27.5 32.5C31.6422 32.5 35 29.1422 35 25C35 20.8578 31.6406 17.5 27.5 17.5Z" fill="#F9BC1A"/>
</svg>
