<svg width="31" height="30" viewBox="0 0 31 30" fill="none" xmlns="http://www.w3.org/2000/svg">
<path fill-rule="evenodd" clip-rule="evenodd" d="M25.8813 4.36027C24.4954 2.97402 22.8465 1.87482 21.03 1.12637C19.2135 0.377915 17.2656 -0.00491868 15.2991 4.77077e-05C7.05334 4.77077e-05 0.340722 6.66873 0.337389 14.8659C0.337389 17.4857 1.02565 20.0425 2.33384 22.298L0.212402 30L8.14323 27.9317C10.337 29.1183 12.7947 29.7406 15.2925 29.7417H15.2991C23.5433 29.7417 30.2559 23.073 30.2592 14.8758C30.2649 12.9226 29.8809 10.9875 29.1295 9.18262C28.378 7.3777 27.2741 5.73868 25.8813 4.36027ZM15.2991 27.2328H15.2941C13.0669 27.2331 10.8807 26.6376 8.96481 25.5089L8.51152 25.2407L3.80535 26.4678L5.06022 21.9088L4.76525 21.4418C3.52003 19.4719 2.86084 17.1922 2.86379 14.8659C2.86712 8.05314 8.44486 2.51053 15.3041 2.51053C16.9377 2.50692 18.5558 2.82531 20.0647 3.44725C21.5736 4.06919 22.9435 4.98234 24.0949 6.13384C25.2524 7.27986 26.17 8.6425 26.7944 10.143C27.4188 11.6435 27.7378 13.2521 27.7328 14.8758C27.7295 21.6886 22.1517 27.2328 15.2991 27.2328ZM22.1201 17.9775C21.7451 17.7904 19.9086 16.8928 19.5653 16.7686C19.2237 16.6444 18.9754 16.5832 18.7254 16.9541C18.4755 17.325 17.7589 18.1613 17.5406 18.4097C17.3223 18.6581 17.1039 18.6879 16.7306 18.5024C16.3574 18.317 15.1525 17.9245 13.7243 16.6593C12.6128 15.674 11.8628 14.4585 11.6445 14.0859C11.4262 13.7133 11.6212 13.5129 11.8095 13.3275C11.9778 13.1619 12.1828 12.8936 12.3694 12.6767C12.5561 12.4597 12.6178 12.3057 12.7427 12.0573C12.8677 11.8089 12.8061 11.592 12.7111 11.4065C12.6178 11.2194 11.8695 9.39118 11.5579 8.64764C11.2562 7.92728 10.9479 8.02333 10.718 8.01339C10.4798 8.00371 10.2414 7.9993 10.003 8.00014C9.81348 8.00494 9.62697 8.04861 9.45519 8.1284C9.28341 8.20819 9.13008 8.32238 9.0048 8.46382C8.66151 8.83642 7.69661 9.73397 7.69661 11.5622C7.69661 13.3904 9.03647 15.1573 9.22311 15.4057C9.40976 15.6541 11.8595 19.405 15.6091 21.0146C16.5023 21.3971 17.1989 21.6256 17.7405 21.7979C18.6354 22.081 19.4504 22.0396 20.0953 21.9453C20.8136 21.8393 22.3067 21.0477 22.6184 20.18C22.93 19.3122 22.93 18.5687 22.8367 18.413C22.7433 18.2574 22.4917 18.163 22.1201 17.9775Z" fill="white"/>
</svg>
