<svg width="31" height="30" viewBox="0 0 31 30" fill="none" xmlns="http://www.w3.org/2000/svg">
<g clip-path="url(#clip0_247_607)">
<path d="M30.1341 6.17125C29.0887 6.63375 27.9657 6.94625 26.7851 7.0875C28.0033 6.35974 28.9146 5.21434 29.3491 3.865C28.2047 4.54374 26.9521 5.0215 25.6459 5.2775C24.7675 4.34109 23.604 3.72041 22.3361 3.51185C21.0682 3.30328 19.7668 3.51849 18.634 4.12407C17.5011 4.72965 16.6002 5.69171 16.0711 6.86088C15.542 8.03006 15.4143 9.34094 15.7079 10.59C13.3889 10.4737 11.1202 9.87194 9.04926 8.82364C6.97827 7.77533 5.1512 6.30396 3.68661 4.505C3.18583 5.3675 2.89788 6.3675 2.89788 7.4325C2.89732 8.39125 3.13379 9.33531 3.58631 10.1809C4.03882 11.0265 4.69339 11.7476 5.49193 12.28C4.56583 12.2506 3.66016 12.0007 2.85031 11.5513V11.6263C2.85022 12.9709 3.31608 14.2742 4.16884 15.315C5.02161 16.3558 6.20876 17.0699 7.52886 17.3363C6.66975 17.5684 5.76903 17.6026 4.89475 17.4363C5.2672 18.5933 5.99271 19.605 6.96969 20.3299C7.94668 21.0548 9.12625 21.4565 10.3432 21.4788C8.27732 23.098 5.7259 23.9764 3.09945 23.9725C2.6342 23.9726 2.16934 23.9455 1.70728 23.8913C4.37328 25.6027 7.4767 26.511 10.6462 26.5075C21.3755 26.5075 27.2409 17.635 27.2409 9.94C27.2409 9.69 27.2346 9.4375 27.2233 9.1875C28.3642 8.36372 29.349 7.34362 30.1316 6.175L30.1341 6.17125Z" fill="white"/>
</g>
<defs>
<clipPath id="clip0_247_607">
<rect width="30.0469" height="30" fill="white" transform="translate(0.53418)"/>
</clipPath>
</defs>
</svg>
