<svg width="26" height="24" viewBox="0 0 26 24" fill="none" xmlns="http://www.w3.org/2000/svg">
<path d="M18.3333 17.3334V18.6667C18.3333 19.7276 17.9119 20.745 17.1618 21.4951C16.4116 22.2453 15.3942 22.6667 14.3333 22.6667H5C3.93913 22.6667 2.92172 22.2453 2.17157 21.4951C1.42143 20.745 1 19.7276 1 18.6667V5.33337C1 4.27251 1.42143 3.25509 2.17157 2.50495C2.92172 1.7548 3.93913 1.33337 5 1.33337H14.3333C15.3942 1.33337 16.4116 1.7548 17.1618 2.50495C17.9119 3.25509 18.3333 4.27251 18.3333 5.33337V6.66671M11.6667 17.3334L6.33333 12L11.6667 17.3334ZM6.33333 12L11.6667 6.66671L6.33333 12ZM6.33333 12H25H6.33333Z" stroke="#1A1A1A" stroke-width="2" stroke-linecap="round" stroke-linejoin="round"/>
</svg>
