<svg width="15" height="9" viewBox="0 0 15 9" fill="none" xmlns="http://www.w3.org/2000/svg">
<path d="M0.330173 0.321215C0.541647 0.115541 0.828428 0 1.12745 0C1.42648 0 1.71326 0.115541 1.92473 0.321215L7.50681 5.75184L13.0889 0.321215C13.3016 0.12137 13.5864 0.0107885 13.8821 0.0132882C14.1778 0.0157878 14.4606 0.131169 14.6697 0.334579C14.8788 0.53799 14.9974 0.813155 15 1.10081C15.0025 1.38847 14.8889 1.66559 14.6834 1.87251L8.30409 8.07878C8.09261 8.28446 7.80583 8.4 7.50681 8.4C7.20778 8.4 6.921 8.28446 6.70953 8.07878L0.330173 1.87251C0.118763 1.66677 0 1.38777 0 1.09686C0 0.805951 0.118763 0.526951 0.330173 0.321215Z" fill="#F9BC1A"/>
</svg>
