<svg width="20" height="21" viewBox="0 0 20 21" fill="none" xmlns="http://www.w3.org/2000/svg">
<path d="M13.8083 18.8596C14.0296 18.8609 14.249 18.8181 14.4536 18.7337C14.6582 18.6493 14.844 18.5249 15 18.368L17.2583 16.1096C17.4135 15.9535 17.5006 15.7423 17.5006 15.5221C17.5006 15.302 17.4135 15.0908 17.2583 14.9346L13.925 11.6013C13.7689 11.4461 13.5576 11.359 13.3375 11.359C13.1173 11.359 12.9061 11.4461 12.75 11.6013L11.4167 12.9263C10.4935 12.6802 9.63858 12.227 8.91665 11.6013C8.29259 10.8782 7.83968 10.0237 7.59165 9.1013L8.91665 7.76797C9.07186 7.61183 9.15898 7.40062 9.15898 7.18047C9.15898 6.96031 9.07186 6.7491 8.91665 6.59297L5.58332 3.25964C5.42718 3.10443 5.21598 3.01731 4.99582 3.01731C4.77567 3.01731 4.56446 3.10443 4.40832 3.25964L2.15832 5.5263C2.00135 5.68234 1.87702 5.86807 1.79261 6.07268C1.70819 6.27728 1.66538 6.49664 1.66665 6.71797C1.74226 9.91988 3.02172 12.9757 5.24999 15.2763C7.55058 17.5046 10.6064 18.784 13.8083 18.8596ZM4.99999 5.03464L7.15832 7.19297L6.08332 8.26797C5.9815 8.36334 5.90526 8.48275 5.86158 8.61524C5.8179 8.74774 5.80818 8.88908 5.83332 9.0263C6.14479 10.4183 6.80424 11.7085 7.74999 12.7763C8.81695 13.7233 10.1075 14.3829 11.5 14.693C11.6351 14.7212 11.7752 14.7155 11.9076 14.6762C12.0399 14.6369 12.1605 14.5654 12.2583 14.468L13.3333 13.368L15.4917 15.5263L13.825 17.193C11.0614 17.1218 8.42457 16.0189 6.43332 14.1013C4.51075 12.1092 3.40466 9.46889 3.33332 6.7013L4.99999 5.03464ZM16.6667 9.69297H18.3333C18.3549 8.70213 18.1757 7.71718 17.8064 6.79747C17.4372 5.87776 16.8855 5.04234 16.1847 4.34155C15.4839 3.64076 14.6485 3.08911 13.7288 2.71985C12.8091 2.35059 11.8242 2.17136 10.8333 2.19297V3.85964C11.6066 3.83289 12.3771 3.96548 13.0969 4.24916C13.8167 4.53285 14.4705 4.96157 15.0176 5.50867C15.5647 6.05577 15.9934 6.70956 16.2771 7.42939C16.5608 8.14922 16.6934 8.91971 16.6667 9.69297Z" fill="#1A1A1A"/>
<path d="M10.8334 7.19297C12.5834 7.19297 13.3334 7.94297 13.3334 9.69297H15C15 7.00964 13.5167 5.52631 10.8334 5.52631V7.19297Z" fill="#1A1A1A"/>
</svg>
