<svg width="660" height="492" viewBox="0 0 660 492" fill="none" xmlns="http://www.w3.org/2000/svg">
<path d="M79.6637 435.211C79.6637 435.211 30.2373 414.665 24.7455 392.536C19.2537 370.407 64.1413 377.886 98.4652 422.967C98.4652 422.967 47.7627 337.941 79.3084 331.771C110.854 325.601 127.976 414.827 127.976 414.827C127.976 414.827 136.892 370.957 157.518 373.105C178.145 375.253 166.16 409.044 132.111 435.211H79.6637Z" fill="#2D4193"/>
<path d="M114.698 431.738C109.259 397.135 96.7861 364.014 78.0483 334.42" stroke="url(#paint0_radial_446_5703)" stroke-width="0.7" stroke-linecap="round" stroke-linejoin="round"/>
<path d="M98.4813 430.446C98.4813 430.446 53.5292 408.656 33.274 382.15" stroke="url(#paint1_radial_446_5703)" stroke-width="0.7" stroke-linecap="round" stroke-linejoin="round"/>
<path d="M157.535 378.952C157.535 378.952 142.255 423.5 120.029 430.446" stroke="url(#paint2_radial_446_5703)" stroke-width="0.7" stroke-linecap="round" stroke-linejoin="round"/>
<path d="M300.644 420.173C300.644 420.173 230.268 425.374 191.713 417.718C169.406 413.292 159.666 398.884 188.951 393.117C203.714 390.21 231.835 366.482 174.413 359.117C124.341 352.656 118.994 316.119 163.494 316.862C173.945 317.023 159.537 310.256 146.777 286.608C136.972 268.405 138.7 239.621 155.24 231.432C190.178 214.149 189.257 279.76 203.52 282.845C217.217 285.801 222.483 248.828 241.559 253.399C266.466 259.375 226.053 329.509 231.011 335.776C241.591 349.134 261.362 283.023 279.921 288.337C298.48 293.651 240.347 403.778 300.644 420.173Z" fill="#2D4193"/>
<path d="M283.071 417.088C244.838 401.808 250.055 373.476 205.685 336.18C169.003 305.329 159.311 270.359 162.283 230.317" stroke="url(#paint3_radial_446_5703)" stroke-width="0.7" stroke-linecap="round" stroke-linejoin="round"/>
<path d="M382.651 417.895C382.651 417.895 432.077 397.333 437.569 375.204C443.061 353.076 400.79 355.531 366.498 400.612C366.498 400.612 417.798 324.163 386.253 318.009C354.707 311.855 334.387 397.559 334.387 397.559C334.387 397.559 325.471 353.706 304.845 355.854C284.218 358.002 296.203 391.793 330.236 417.96L382.651 417.895Z" fill="#2D4193"/>
<path d="M347.665 414.423C347.665 414.423 356.081 360.845 387.497 320.642" stroke="url(#paint4_radial_446_5703)" stroke-width="0.7" stroke-linecap="round" stroke-linejoin="round"/>
<path d="M363.946 413.13C363.946 413.13 404.537 376.238 429.153 369.438" stroke="url(#paint5_radial_446_5703)" stroke-width="0.7" stroke-linecap="round" stroke-linejoin="round"/>
<path d="M304.844 361.636C304.844 361.636 320.124 406.169 342.35 413.13" stroke="url(#paint6_radial_446_5703)" stroke-width="0.7" stroke-linecap="round" stroke-linejoin="round"/>
<path d="M496.396 410.304C496.396 410.304 566.772 415.505 605.328 407.849C627.634 403.423 637.374 388.999 608.09 383.232C593.326 380.325 568.613 370.068 622.627 349.312C667.854 331.9 673.814 302.292 630.703 313.518C608.38 319.333 637.471 300.451 650.231 276.788C660.036 258.584 658.308 229.817 641.767 221.611C606.83 204.328 600.53 282.393 586.268 285.478C572.571 288.418 588.206 234.84 563.654 241.866C539.103 248.893 572.732 310.223 566.061 325.859C559.39 341.494 555.061 272.071 536.502 277.402C517.943 282.732 556.628 393.941 496.396 410.304Z" fill="url(#paint7_radial_446_5703)"/>
<path d="M513.906 407.251C552.139 391.971 546.905 363.639 591.292 326.343C627.974 295.508 641.154 268.938 638.134 228.896" stroke="url(#paint8_radial_446_5703)" stroke-width="0.7" stroke-linecap="round" stroke-linejoin="round"/>
<path d="M337.311 491.211C498.027 491.211 628.313 473.486 628.313 451.622C628.313 429.757 498.027 412.032 337.311 412.032C176.595 412.032 46.3092 429.757 46.3092 451.622C46.3092 473.486 176.595 491.211 337.311 491.211Z" fill="#2D4193"/>
<path d="M439.313 66.6612L546.032 25.2949V21.386H558.211C559.928 21.3538 561.635 21.6643 563.231 22.2992C564.827 22.9342 566.28 23.8809 567.505 25.084C568.731 26.2871 569.705 27.7226 570.369 29.3063C571.034 30.8901 571.376 32.5904 571.375 34.3079V457.501C571.376 459.219 571.034 460.919 570.369 462.503C569.705 464.087 568.731 465.522 567.505 466.725C566.28 467.928 564.827 468.875 563.231 469.51C561.635 470.145 559.928 470.455 558.211 470.423H546.032V466.514L439.313 425.019C436.902 424.073 434.83 422.425 433.367 420.288C431.904 418.151 431.117 415.624 431.108 413.034V78.6786C431.111 76.0831 431.895 73.5486 433.358 71.4051C434.822 69.2617 436.897 67.6086 439.313 66.6612Z" fill="url(#paint9_linear_446_5703)"/>
<path d="M439.313 66.6612L546.032 25.2949V21.386H558.211C559.928 21.3538 561.635 21.6643 563.231 22.2992C564.827 22.9342 566.28 23.8809 567.505 25.084C568.731 26.2871 569.705 27.7226 570.369 29.3063C571.034 30.8901 571.376 32.5904 571.375 34.3079V457.501C571.376 459.219 571.034 460.919 570.369 462.503C569.705 464.087 568.731 465.522 567.505 466.725C566.28 467.928 564.827 468.875 563.231 469.51C561.635 470.145 559.928 470.455 558.211 470.423H546.032V466.514L439.313 425.019C436.902 424.073 434.83 422.425 433.367 420.288C431.904 418.151 431.117 415.624 431.108 413.034V78.6786C431.111 76.0831 431.895 73.5486 433.358 71.4051C434.822 69.2617 436.897 67.6086 439.313 66.6612Z" fill="url(#paint10_radial_446_5703)"/>
<path d="M427.021 425.018L541.623 469.438C543.573 470.178 545.673 470.436 547.744 470.188C549.815 469.94 551.795 469.195 553.516 468.016C555.236 466.837 556.646 465.259 557.624 463.416C558.602 461.574 559.119 459.522 559.132 457.436V34.243C559.117 32.1586 558.597 30.1089 557.618 28.2687C556.639 26.4284 555.229 24.8524 553.509 23.675C551.789 22.4976 549.81 21.7537 547.74 21.507C545.67 21.2602 543.571 21.5179 541.623 22.2579L427.07 66.6609C424.656 67.6073 422.582 69.2579 421.119 71.3982C419.656 73.5385 418.87 76.0695 418.864 78.6622V413.017C418.866 415.604 419.645 418.131 421.099 420.271C422.553 422.411 424.616 424.064 427.021 425.018Z" fill="url(#paint11_linear_446_5703)"/>
<path d="M546.274 455.563C546.957 455.53 547.602 455.237 548.076 454.745C548.551 454.253 548.819 453.597 548.827 452.914V38.782C548.819 38.0983 548.551 37.4432 548.076 36.9509C547.602 36.4585 546.957 36.1659 546.274 36.133C545.956 36.1188 545.637 36.1683 545.338 36.2783L430.768 76.6594C430.291 76.8455 429.881 77.172 429.592 77.5959C429.304 78.0198 429.151 78.5211 429.153 79.0338V412.581C429.15 413.096 429.302 413.6 429.591 414.027C429.879 414.453 430.29 414.783 430.768 414.972L545.338 455.353C545.633 455.484 545.951 455.556 546.274 455.563Z" fill="url(#paint12_linear_446_5703)"/>
<path d="M548.827 291.713V38.782C548.82 38.0983 548.551 37.4432 548.077 36.9509C547.602 36.4585 546.958 36.1659 546.275 36.133C545.956 36.1188 545.638 36.1683 545.338 36.2783L503.972 50.8155C473.395 91.1966 530.736 144.645 526.214 207.591C523.855 240.558 496.671 299.03 429.073 290.469V319.301C495.153 334.403 535.986 311.499 548.827 291.713Z" fill="url(#paint13_linear_446_5703)"/>
<path opacity="0.56" d="M429.073 383.523V412.597C429.07 413.112 429.222 413.616 429.51 414.043C429.799 414.469 430.209 414.799 430.688 414.988L545.257 455.369C545.556 455.484 545.874 455.539 546.194 455.53C546.877 455.498 547.522 455.205 547.996 454.713C548.47 454.22 548.739 453.565 548.746 452.881V398.9L429.073 383.523Z" fill="#FFFFFD"/>
<g style="mix-blend-mode:multiply" opacity="0.33">
<g style="mix-blend-mode:multiply" opacity="0.33">
<path d="M396.913 199.353L520.253 203.181C528.539 203.439 535.743 195.186 535.743 185.413V129.041C535.743 119.35 528.539 112.437 520.253 114.31L396.913 142.351C390.29 143.853 385.251 151.17 385.251 159.279V184.767C385.251 192.811 390.29 199.143 396.913 199.353Z" fill="#606060"/>
</g>
</g>
<g style="mix-blend-mode:multiply" opacity="0.33">
<path d="M468.904 83.4917C481.455 83.4917 491.63 69.2091 491.63 51.5907C491.63 33.9722 481.455 19.6896 468.904 19.6896C456.352 19.6896 446.177 33.9722 446.177 51.5907C446.177 69.2091 456.352 83.4917 468.904 83.4917Z" fill="#606060"/>
</g>
<g style="mix-blend-mode:multiply" opacity="0.33">
<path d="M441.526 345.177C455.808 345.177 467.386 330.526 467.386 312.452C467.386 294.379 455.808 279.727 441.526 279.727C427.244 279.727 415.666 294.379 415.666 312.452C415.666 330.526 427.244 345.177 441.526 345.177Z" fill="#606060"/>
</g>
<g style="mix-blend-mode:multiply" opacity="0.33">
<path d="M523.015 413.938C534.808 413.938 544.368 400.393 544.368 383.684C544.368 366.976 534.808 353.431 523.015 353.431C511.221 353.431 501.661 366.976 501.661 383.684C501.661 400.393 511.221 413.938 523.015 413.938Z" fill="#606060"/>
</g>
<g style="mix-blend-mode:multiply" opacity="0.33">
<path d="M513.049 300.338C525.627 300.338 535.824 284.45 535.824 264.851C535.824 245.252 525.627 229.364 513.049 229.364C500.47 229.364 490.274 245.252 490.274 264.851C490.274 284.45 500.47 300.338 513.049 300.338Z" fill="#606060"/>
</g>
<path d="M477.498 410.481C477.498 416.942 475.657 422.063 473.395 422.063C471.134 422.063 469.276 416.878 469.276 410.481C469.276 404.085 471.118 398.884 473.395 398.884C475.673 398.884 477.498 404.02 477.498 410.481Z" fill="url(#paint14_linear_446_5703)"/>
<path d="M359.263 188.434L508.204 189.468C517.895 189.468 526.214 179.372 526.214 167.565V99.531C526.214 87.7236 517.847 79.4859 508.204 81.7634L359.263 116.943C350.976 118.898 344.725 128.153 344.725 138.345V170.376C344.661 180.568 351.025 188.385 359.263 188.434Z" fill="url(#paint15_linear_446_5703)"/>
<path d="M359.263 188.434L508.204 189.468C517.895 189.468 526.214 179.372 526.214 167.565V99.531C526.214 87.7236 517.847 79.4859 508.204 81.7634L359.263 116.943C350.976 118.898 344.725 128.153 344.725 138.345V170.376C344.661 180.568 351.025 188.385 359.263 188.434Z" fill="url(#paint16_radial_446_5703)"/>
<path d="M351.508 188.402L500.337 189.436C510.028 189.436 518.347 179.34 518.347 167.533V99.515C518.347 87.7238 509.98 79.4861 500.337 81.7474L351.508 116.927C343.238 118.882 336.971 128.137 336.971 138.329V170.343C336.923 180.536 343.238 188.337 351.508 188.402Z" fill="url(#paint17_radial_446_5703)"/>
<path d="M479.597 116.378L476.367 126.49C476.273 126.895 476.085 127.273 475.818 127.592C475.552 127.912 475.214 128.165 474.832 128.331L467.774 130.673C466.159 131.19 465.545 134.194 466.708 135.696L471.828 142.287C472.338 143.033 472.546 143.945 472.41 144.839L471.101 155.273C470.794 157.68 472.506 159.392 473.96 158.132L480.421 152.576C480.677 152.324 481.014 152.172 481.372 152.145C481.729 152.119 482.085 152.22 482.376 152.43L489.079 157.114C490.694 158.213 492.519 156.178 492.196 153.69L490.759 143.013C490.628 142.032 490.851 141.035 491.389 140.203L497.139 131.933C498.496 129.995 497.753 126.942 495.927 126.845L488.142 126.49C487.758 126.436 487.399 126.269 487.111 126.01C486.824 125.751 486.62 125.412 486.527 125.036L483.296 115.764C482.537 113.648 480.324 114.02 479.597 116.378Z" fill="url(#paint18_linear_446_5703)"/>
<path d="M432.368 162.251C432.06 162.245 431.757 162.175 431.479 162.044C431.2 161.913 430.953 161.725 430.752 161.492C430.397 161.04 430.136 160.521 429.986 159.966C429.836 159.41 429.8 158.831 429.88 158.261L430.946 148.861C431.023 148.303 430.915 147.736 430.639 147.245L426.472 141.237C426.119 140.65 425.899 139.993 425.826 139.312C425.754 138.632 425.831 137.943 426.052 137.295C426.168 136.839 426.388 136.416 426.693 136.058C426.998 135.699 427.381 135.415 427.813 135.228L433.563 133.209C433.724 133.209 434.015 132.853 434.193 132.224L436.761 123.162C436.866 122.519 437.179 121.928 437.651 121.478C438.124 121.029 438.73 120.747 439.378 120.675C439.915 120.707 440.427 120.916 440.833 121.27C441.239 121.623 441.517 122.101 441.623 122.629L444.272 131.028C444.417 131.497 444.644 131.658 444.724 131.658L450.991 132.094C451.42 132.137 451.83 132.293 452.179 132.545C452.528 132.798 452.803 133.138 452.978 133.532C453.326 134.261 453.486 135.066 453.444 135.872C453.402 136.679 453.158 137.463 452.736 138.151L448.1 145.517C447.776 146.085 447.645 146.742 447.729 147.391L448.892 157.001C448.982 157.628 448.943 158.268 448.777 158.879C448.61 159.49 448.319 160.061 447.922 160.555C447.706 160.819 447.435 161.033 447.129 161.184C446.822 161.334 446.487 161.417 446.146 161.427C445.657 161.424 445.183 161.253 444.805 160.943L439.378 156.678H439.265C439.227 156.679 439.191 156.689 439.157 156.705C439.124 156.722 439.094 156.746 439.071 156.775L433.854 161.734C433.441 162.087 432.91 162.271 432.368 162.251Z" fill="#F9BC1A"/>
<path d="M439.394 121.547C439.927 121.547 440.444 121.967 440.719 122.823L443.351 131.222C443.407 131.553 443.565 131.858 443.802 132.096C444.04 132.333 444.345 132.491 444.676 132.547L450.943 132.966C452.413 133.063 453.011 135.809 451.928 137.538L447.293 144.903C446.855 145.666 446.674 146.549 446.776 147.423L447.939 157.017C448.149 158.827 447.212 160.361 446.162 160.361C445.889 160.351 445.627 160.248 445.419 160.07L440.008 155.806C439.777 155.609 439.476 155.512 439.174 155.537C438.871 155.561 438.59 155.704 438.393 155.935L433.159 160.91C433.054 161.024 432.926 161.115 432.785 161.179C432.643 161.243 432.491 161.278 432.336 161.282C431.431 161.282 430.64 159.973 430.833 158.31L431.899 148.909C432.016 148.101 431.845 147.277 431.415 146.583L427.248 140.59C426.311 139.217 426.828 136.52 428.12 136.052L433.87 134.033C434.19 133.878 434.47 133.652 434.689 133.372C434.907 133.092 435.058 132.765 435.13 132.417L437.682 123.356C438.021 122.193 438.7 121.579 439.297 121.579L439.394 121.547ZM439.297 119.641C438.43 119.707 437.61 120.061 436.966 120.646C436.322 121.231 435.892 122.014 435.744 122.871L433.175 131.933C433.145 132.076 433.091 132.212 433.014 132.337L427.506 134.275C426.932 134.509 426.421 134.873 426.012 135.338C425.602 135.803 425.307 136.357 425.148 136.956C424.872 137.753 424.776 138.601 424.869 139.439C424.961 140.277 425.238 141.084 425.681 141.802L429.848 147.794C429.999 148.099 430.05 148.444 429.993 148.78L428.927 158.18C428.825 158.897 428.871 159.626 429.062 160.324C429.254 161.021 429.588 161.672 430.042 162.235C430.328 162.573 430.684 162.847 431.086 163.036C431.487 163.226 431.924 163.327 432.368 163.333C433.185 163.313 433.964 162.984 434.548 162.412L439.394 157.857L444.24 161.702C444.797 162.142 445.484 162.386 446.194 162.396C446.672 162.39 447.142 162.281 447.574 162.078C448.006 161.874 448.389 161.581 448.698 161.217C449.188 160.618 449.548 159.924 449.757 159.179C449.965 158.434 450.017 157.654 449.909 156.888L448.746 147.278C448.702 146.85 448.78 146.418 448.973 146.034L453.608 138.668C454.113 137.836 454.404 136.891 454.455 135.919C454.505 134.946 454.315 133.976 453.899 133.096C453.65 132.547 453.261 132.074 452.77 131.725C452.279 131.376 451.704 131.164 451.105 131.109L445.241 130.721L442.609 122.338C442.437 121.604 442.027 120.947 441.443 120.47C440.858 119.994 440.132 119.725 439.378 119.705L439.297 119.641Z" fill="white"/>
<path d="M398.981 164.496C398.712 164.49 398.447 164.426 398.205 164.309C397.962 164.192 397.748 164.024 397.575 163.818C397.232 163.382 396.982 162.881 396.84 162.345C396.699 161.808 396.668 161.249 396.752 160.7L397.64 152.14C397.708 151.624 397.618 151.101 397.382 150.638L393.925 145.13C393.614 144.555 393.427 143.922 393.377 143.271C393.327 142.619 393.415 141.965 393.634 141.35C393.741 140.963 393.931 140.603 394.19 140.297C394.45 139.99 394.772 139.743 395.136 139.573L399.982 137.812C400.212 137.592 400.365 137.303 400.418 136.989L402.534 128.767C402.906 127.346 403.794 126.457 404.86 126.457C405.926 126.457 406.556 127.152 406.895 128.347L409.076 136.003C409.189 136.359 409.318 136.504 409.367 136.52L414.471 136.956C414.84 137.003 415.191 137.143 415.491 137.364C415.791 137.584 416.029 137.878 416.183 138.216C416.504 138.903 416.659 139.655 416.637 140.412C416.615 141.17 416.415 141.911 416.054 142.577L412.242 149.216C411.984 149.713 411.877 150.274 411.935 150.831L412.888 159.57C412.97 160.162 412.932 160.764 412.777 161.342C412.622 161.919 412.352 162.459 411.983 162.929C411.795 163.15 411.563 163.329 411.302 163.454C411.04 163.58 410.755 163.648 410.465 163.656C409.997 163.656 409.546 163.477 409.205 163.156L404.731 159.263L400.434 163.786C400.261 164.005 400.04 164.183 399.788 164.306C399.537 164.429 399.261 164.494 398.981 164.496Z" fill="#F9BC1A"/>
<path d="M404.779 127.426C405.215 127.426 405.651 127.814 405.877 128.606L408.058 136.262C408.268 136.989 408.672 137.441 409.14 137.473L414.309 137.942C415.52 138.039 416.021 140.542 415.116 142.093L411.305 148.812C410.947 149.515 410.801 150.306 410.885 151.09L411.838 159.812C412.015 161.427 411.24 162.833 410.384 162.833C410.154 162.828 409.934 162.735 409.77 162.574L405.296 158.665C405.132 158.515 404.92 158.429 404.698 158.423C404.561 158.429 404.427 158.463 404.305 158.524C404.182 158.586 404.074 158.672 403.987 158.778L399.659 163.253C399.576 163.354 399.473 163.437 399.356 163.495C399.239 163.554 399.111 163.587 398.98 163.592C398.221 163.592 397.559 162.396 397.72 160.878L398.609 152.317C398.706 151.587 398.565 150.845 398.205 150.201L394.748 144.693C393.957 143.45 394.393 140.978 395.475 140.575L400.321 138.798C400.596 138.647 400.833 138.434 401.012 138.176C401.191 137.918 401.309 137.622 401.355 137.312L403.487 129.106C403.745 128.056 404.311 127.491 404.86 127.491L404.779 127.426ZM404.86 125.537C404.057 125.611 403.303 125.952 402.717 126.505C402.132 127.059 401.749 127.793 401.629 128.589L399.497 136.811C399.482 136.895 399.455 136.977 399.416 137.053L394.91 138.669C394.405 138.88 393.955 139.204 393.594 139.615C393.233 140.027 392.97 140.515 392.826 141.043C392.559 141.796 392.455 142.598 392.522 143.395C392.588 144.191 392.824 144.964 393.214 145.663L396.67 151.171C396.777 151.448 396.816 151.747 396.784 152.043L395.895 160.604C395.799 161.288 395.844 161.985 396.028 162.652C396.211 163.319 396.529 163.941 396.961 164.48C397.227 164.785 397.555 165.031 397.922 165.2C398.289 165.37 398.689 165.461 399.093 165.465C399.486 165.457 399.872 165.37 400.23 165.209C400.588 165.048 400.91 164.817 401.177 164.529L404.86 160.7L408.591 163.931C409.113 164.405 409.792 164.67 410.497 164.674C410.925 164.665 411.347 164.565 411.734 164.381C412.121 164.197 412.464 163.934 412.742 163.608C413.206 163.037 413.548 162.377 413.745 161.668C413.942 160.959 413.991 160.218 413.889 159.489L412.936 150.767C412.893 150.391 412.954 150.011 413.114 149.668L416.926 143.03C417.372 142.223 417.619 141.322 417.647 140.4C417.675 139.479 417.483 138.564 417.087 137.732C416.851 137.253 416.501 136.841 416.067 136.531C415.633 136.22 415.129 136.023 414.6 135.955L410.012 135.551L407.864 128.04C407.726 127.339 407.359 126.704 406.822 126.233C406.284 125.762 405.605 125.483 404.892 125.44L404.86 125.537Z" fill="white"/>
<path d="M371.053 166.354C370.814 166.35 370.579 166.297 370.362 166.196C370.145 166.096 369.951 165.952 369.793 165.772C369.471 165.351 369.237 164.87 369.104 164.357C368.971 163.843 368.942 163.309 369.018 162.784L369.761 154.934C369.818 154.471 369.745 154.001 369.551 153.577L366.628 148.473C366.355 147.914 366.197 147.305 366.164 146.684C366.131 146.062 366.222 145.44 366.434 144.855C366.513 144.506 366.671 144.179 366.895 143.899C367.118 143.619 367.403 143.394 367.726 143.24L371.748 141.624C371.889 141.426 371.988 141.201 372.039 140.962L373.815 133.451C374.203 131.836 375.156 131.255 375.915 131.255C376.254 131.255 377.353 131.384 377.805 133.08L379.63 140.122C379.665 140.287 379.737 140.442 379.84 140.575L384.024 140.994C384.347 141.041 384.653 141.168 384.915 141.362C385.178 141.557 385.387 141.813 385.526 142.109C385.828 142.753 385.985 143.457 385.985 144.168C385.985 144.88 385.828 145.583 385.526 146.228L382.295 152.269C382.054 152.771 381.969 153.334 382.053 153.884L382.845 161.88C382.929 162.448 382.896 163.027 382.749 163.583C382.602 164.138 382.343 164.658 381.989 165.11C381.827 165.306 381.625 165.465 381.396 165.577C381.168 165.688 380.918 165.749 380.664 165.756C380.208 165.749 379.773 165.563 379.453 165.239L375.802 161.734L372.346 165.74C372.192 165.935 371.995 166.091 371.771 166.198C371.547 166.304 371.301 166.358 371.053 166.354Z" fill="#F9BC1A"/>
<path d="M375.915 132.321C376.303 132.321 376.658 132.676 376.852 133.419L378.694 140.462C378.855 141.124 379.194 141.544 379.598 141.592L383.927 142.061C384.945 142.174 385.348 144.467 384.605 145.873L381.375 151.914C381.07 152.563 380.947 153.283 381.019 153.997L381.827 161.993C381.972 163.479 381.326 164.739 380.616 164.739C380.515 164.737 380.415 164.715 380.324 164.674C380.232 164.632 380.15 164.571 380.083 164.496L376.335 160.894C376.202 160.76 376.023 160.68 375.835 160.668C375.715 160.676 375.599 160.709 375.494 160.765C375.388 160.82 375.295 160.898 375.221 160.991L371.586 165.078C371.518 165.165 371.433 165.237 371.336 165.29C371.238 165.343 371.131 165.375 371.021 165.385C370.375 165.385 369.826 164.286 369.955 162.881L370.698 155.031C370.78 154.362 370.668 153.684 370.375 153.077L367.451 147.989C366.773 146.826 367.145 144.564 368.049 144.209L372.087 142.594C372.322 142.448 372.521 142.252 372.672 142.02C372.823 141.788 372.921 141.527 372.959 141.253L374.736 133.742C374.962 132.789 375.431 132.288 375.883 132.288L375.915 132.321ZM375.883 130.334C374.752 130.334 373.363 131.109 372.846 133.29L371.053 140.801C371.056 140.838 371.056 140.876 371.053 140.914L367.371 142.367C366.92 142.559 366.518 142.85 366.196 143.22C365.874 143.589 365.641 144.027 365.513 144.5C365.256 145.22 365.148 145.985 365.195 146.749C365.242 147.512 365.444 148.258 365.788 148.942L368.711 154.03C368.764 154.285 368.764 154.549 368.711 154.805L367.968 162.671C367.875 163.327 367.917 163.995 368.092 164.634C368.267 165.273 368.571 165.869 368.986 166.386C369.232 166.672 369.537 166.903 369.88 167.061C370.222 167.22 370.595 167.304 370.973 167.307C371.359 167.3 371.74 167.21 372.088 167.043C372.437 166.876 372.745 166.635 372.992 166.338L375.835 163.107L378.677 165.837C379.179 166.339 379.858 166.623 380.567 166.628C380.957 166.621 381.34 166.533 381.694 166.369C382.047 166.205 382.362 165.968 382.619 165.675C383.058 165.126 383.381 164.494 383.57 163.817C383.759 163.14 383.809 162.431 383.717 161.734L382.925 153.739C382.881 153.405 382.926 153.065 383.055 152.754L386.285 146.729C386.668 145.944 386.867 145.082 386.867 144.209C386.867 143.336 386.668 142.474 386.285 141.689C386.075 141.255 385.759 140.879 385.367 140.597C384.975 140.315 384.519 140.135 384.04 140.074L380.422 139.686L378.645 132.886C378.545 132.197 378.208 131.563 377.692 131.095C377.177 130.626 376.514 130.352 375.818 130.318L375.883 130.334Z" fill="white"/>
<path d="M347.342 167.953C347.123 167.944 346.909 167.89 346.712 167.796C346.515 167.701 346.339 167.568 346.195 167.404C345.887 167.004 345.664 166.546 345.539 166.057C345.414 165.568 345.39 165.059 345.468 164.561L346.098 157.308C346.151 156.88 346.09 156.445 345.92 156.049L343.417 151.316C342.925 150.219 342.879 148.974 343.288 147.843C343.371 147.546 343.516 147.27 343.714 147.034C343.911 146.797 344.157 146.605 344.434 146.47L347.875 145.049C347.875 145.049 347.956 144.871 348.036 144.5L349.652 137.586C349.942 136.278 350.653 135.503 351.574 135.503C351.881 135.503 352.931 135.616 353.318 137.263L354.933 143.724C354.955 143.837 354.993 143.946 355.046 144.047L358.568 144.516C358.851 144.563 359.119 144.677 359.349 144.848C359.579 145.02 359.765 145.243 359.892 145.501C360.172 146.117 360.317 146.787 360.317 147.463C360.317 148.14 360.172 148.81 359.892 149.426L357.179 154.966C356.995 155.405 356.923 155.882 356.969 156.355L357.647 163.737C357.722 164.268 357.691 164.808 357.555 165.327C357.419 165.845 357.181 166.332 356.856 166.758C356.707 166.936 356.522 167.08 356.313 167.18C356.104 167.281 355.876 167.335 355.644 167.339C355.427 167.332 355.213 167.281 355.016 167.189C354.819 167.098 354.643 166.967 354.497 166.806L351.59 163.769L348.715 167.242C348.564 167.466 348.359 167.648 348.119 167.772C347.879 167.897 347.612 167.959 347.342 167.953Z" fill="#F9BC1A"/>
<path d="M351.493 136.472C351.816 136.472 352.123 136.811 352.301 137.489L353.916 143.95C354.061 144.564 354.352 144.952 354.691 145L358.374 145.469C359.23 145.582 359.585 147.698 358.956 148.99L356.242 154.53C355.97 155.132 355.864 155.796 355.935 156.452L356.614 163.834C356.743 165.207 356.194 166.354 355.58 166.354C355.493 166.349 355.408 166.327 355.33 166.288C355.252 166.249 355.183 166.194 355.127 166.128L351.897 162.784C351.837 162.711 351.761 162.655 351.674 162.618C351.587 162.582 351.493 162.567 351.399 162.575C351.306 162.583 351.215 162.613 351.136 162.664C351.057 162.714 350.991 162.783 350.944 162.865L347.794 166.693C347.74 166.773 347.668 166.839 347.584 166.887C347.5 166.934 347.406 166.962 347.31 166.968C346.761 166.968 346.292 165.95 346.405 164.658L347.035 157.389C347.105 156.778 347.01 156.159 346.76 155.596L344.257 150.864C343.692 149.781 343.998 147.633 344.774 147.375L348.214 145.953C348.426 145.818 348.604 145.635 348.733 145.419C348.862 145.203 348.939 144.96 348.957 144.709L350.572 137.796C350.766 136.924 351.154 136.472 351.542 136.472H351.493ZM351.542 134.517C350.443 134.517 349.119 135.276 348.666 137.376L347.051 144.29L344.031 145.533C343.627 145.718 343.267 145.986 342.974 146.32C342.682 146.654 342.464 147.047 342.335 147.472C341.835 148.869 341.905 150.406 342.529 151.752L345.032 156.468C345.081 156.708 345.081 156.955 345.032 157.195L344.386 164.448C344.306 165.081 344.352 165.724 344.521 166.339C344.69 166.954 344.979 167.53 345.371 168.034C345.614 168.313 345.916 168.535 346.255 168.682C346.595 168.83 346.963 168.901 347.332 168.888C347.702 168.876 348.065 168.781 348.393 168.611C348.722 168.441 349.008 168.199 349.232 167.904L351.412 165.272L353.561 167.517C353.799 167.785 354.091 168 354.418 168.147C354.745 168.295 355.1 168.371 355.459 168.371C355.817 168.371 356.172 168.295 356.499 168.147C356.826 168 357.119 167.785 357.356 167.517C357.775 166.992 358.083 166.388 358.261 165.741C358.438 165.094 358.482 164.418 358.39 163.753L357.712 156.372C357.681 156.071 357.72 155.767 357.825 155.483L360.539 149.943C360.898 149.186 361.084 148.358 361.084 147.52C361.084 146.682 360.898 145.854 360.539 145.097C360.343 144.7 360.054 144.356 359.697 144.094C359.34 143.833 358.925 143.661 358.487 143.595L355.596 143.207L354.11 137.021C354.03 136.35 353.716 135.729 353.222 135.267C352.728 134.806 352.087 134.535 351.412 134.501L351.542 134.517Z" fill="white"/>
<path d="M499.174 291.18C511.752 291.18 521.949 275.292 521.949 255.693C521.949 236.094 511.752 220.206 499.174 220.206C486.596 220.206 476.399 236.094 476.399 255.693C476.399 275.292 486.596 291.18 499.174 291.18Z" fill="url(#paint19_linear_446_5703)"/>
<path d="M499.174 220.206H495.653V291.164H499.174V220.206Z" fill="url(#paint20_linear_446_5703)"/>
<path d="M494.328 291.18C506.907 291.18 517.103 275.292 517.103 255.693C517.103 236.094 506.907 220.206 494.328 220.206C481.75 220.206 471.553 236.094 471.553 255.693C471.553 275.292 481.75 291.18 494.328 291.18Z" fill="url(#paint21_radial_446_5703)"/>
<path d="M494.328 288.757C506.059 288.757 515.569 273.954 515.569 255.693C515.569 237.432 506.059 222.629 494.328 222.629C482.597 222.629 473.088 237.432 473.088 255.693C473.088 273.954 482.597 288.757 494.328 288.757Z" fill="url(#paint22_linear_446_5703)"/>
<path d="M502.308 244.112C502.308 250.976 498.738 256.533 494.329 256.533C489.919 256.533 486.366 250.976 486.366 244.112C486.366 237.247 489.935 231.69 494.329 231.69C498.722 231.69 502.308 237.182 502.308 244.112Z" fill="white"/>
<path d="M507.412 288.773H481.261V273.913C481.261 270.446 482.638 267.12 485.088 264.667C487.538 262.214 490.861 260.834 494.329 260.829C497.799 260.829 501.126 262.208 503.58 264.661C506.034 267.115 507.412 270.443 507.412 273.913V288.773Z" fill="white"/>
<path d="M435.098 272.314H429.444V337.101H435.098V272.314Z" fill="url(#paint23_linear_446_5703)"/>
<path d="M434.549 337.101C447.35 337.101 457.727 322.594 457.727 304.699C457.727 286.804 447.35 272.297 434.549 272.297C421.748 272.297 411.37 286.804 411.37 304.699C411.37 322.594 421.748 337.101 434.549 337.101Z" fill="url(#paint24_linear_446_5703)"/>
<path d="M429.525 337.101C442.326 337.101 452.703 322.594 452.703 304.699C452.703 286.804 442.326 272.297 429.525 272.297C416.723 272.297 406.346 286.804 406.346 304.699C406.346 322.594 416.723 337.101 429.525 337.101Z" fill="url(#paint25_linear_446_5703)"/>
<path d="M429.525 334.404C441.256 334.404 450.766 321.104 450.766 304.699C450.766 288.294 441.256 274.995 429.525 274.995C417.794 274.995 408.285 288.294 408.285 304.699C408.285 321.104 417.794 334.404 429.525 334.404Z" fill="url(#paint26_radial_446_5703)"/>
<path d="M437.23 319.301H425.1V295.799H439.556C442.383 295.799 444.402 299.272 443.917 303.536L443.126 311.612C442.706 315.844 440.057 319.301 437.23 319.301Z" fill="#FFFFFD"/>
<path d="M425.1 295.799L426.812 290.776V286.915C426.812 285.462 427.829 284.428 428.815 284.913C429.8 285.397 431.157 286.835 431.157 289.968C431.157 295.912 433.806 296.51 433.806 296.51L425.1 295.799Z" fill="#FFFFFD"/>
<path d="M423.323 295.783H412.242V319.301H423.323V295.783Z" fill="url(#paint27_linear_446_5703)"/>
<path d="M419.575 317.314C420.726 317.314 421.659 316.012 421.659 314.407C421.659 312.801 420.726 311.499 419.575 311.499C418.424 311.499 417.492 312.801 417.492 314.407C417.492 316.012 418.424 317.314 419.575 317.314Z" fill="white"/>
<path d="M444.063 295.783H441.252C439.736 295.783 438.506 297.012 438.506 298.529V299.514C438.506 301.031 439.736 302.26 441.252 302.26H444.063C445.579 302.26 446.808 301.031 446.808 299.514V298.529C446.808 297.012 445.579 295.783 444.063 295.783Z" fill="#FFFFFD"/>
<path d="M442.899 301.469H440.088C438.572 301.469 437.342 302.698 437.342 304.215V305.2C437.342 306.716 438.572 307.946 440.088 307.946H442.899C444.415 307.946 445.645 306.716 445.645 305.2V304.215C445.645 302.698 444.415 301.469 442.899 301.469Z" fill="#FFFFFD"/>
<path d="M441.737 307.138H438.926C437.41 307.138 436.18 308.368 436.18 309.884V310.87C436.18 312.386 437.41 313.615 438.926 313.615H441.737C443.253 313.615 444.483 312.386 444.483 310.87V309.884C444.483 308.368 443.253 307.138 441.737 307.138Z" fill="#FFFFFD"/>
<path d="M440.557 312.824H437.746C436.23 312.824 435 314.053 435 315.57V316.555C435 318.072 436.23 319.301 437.746 319.301H440.557C442.073 319.301 443.303 318.072 443.303 316.555V315.57C443.303 314.053 442.073 312.824 440.557 312.824Z" fill="#FFFFFD"/>
<path d="M515.569 404.489C526.844 404.489 535.985 391.537 535.985 375.56C535.985 359.583 526.844 346.631 515.569 346.631C504.293 346.631 495.152 359.583 495.152 375.56C495.152 391.537 504.293 404.489 515.569 404.489Z" fill="url(#paint28_linear_446_5703)"/>
<path d="M515.795 346.631H510.304V404.473H515.795V346.631Z" fill="url(#paint29_linear_446_5703)"/>
<path d="M510.304 404.489C521.58 404.489 530.72 391.537 530.72 375.56C530.72 359.583 521.58 346.631 510.304 346.631C499.028 346.631 489.887 359.583 489.887 375.56C489.887 391.537 499.028 404.489 510.304 404.489Z" fill="url(#paint30_radial_446_5703)"/>
<path d="M510.303 402.535C520.812 402.535 529.331 390.458 529.331 375.56C529.331 360.662 520.812 348.585 510.303 348.585C499.794 348.585 491.276 360.662 491.276 375.56C491.276 390.458 499.794 402.535 510.303 402.535Z" fill="url(#paint31_linear_446_5703)"/>
<path d="M516.668 360.15C515.262 360.288 513.921 360.814 512.797 361.669C511.673 362.525 510.81 363.677 510.304 364.996C509.799 363.676 508.936 362.523 507.812 361.667C506.687 360.811 505.346 360.286 503.94 360.15C499.691 360.15 496.17 364.512 496.736 371.942C497.64 384.024 509.657 395.347 510.304 395.96C510.966 395.347 522.967 384.024 523.888 371.942C524.453 364.512 520.916 360.15 516.668 360.15Z" fill="#FEFEFE"/>
<path d="M460.134 78.3878C472.685 78.3878 482.86 64.1052 482.86 46.4868C482.86 28.8683 472.685 14.5858 460.134 14.5858C447.582 14.5858 437.407 28.8683 437.407 46.4868C437.407 64.1052 447.582 78.3878 460.134 78.3878Z" fill="url(#paint32_linear_446_5703)"/>
<path d="M460.764 14.5858H455.288V78.3555H460.764V14.5858Z" fill="url(#paint33_linear_446_5703)"/>
<path d="M455.288 78.3878C467.839 78.3878 478.014 64.1052 478.014 46.4868C478.014 28.8683 467.839 14.5858 455.288 14.5858C442.736 14.5858 432.561 28.8683 432.561 46.4868C432.561 64.1052 442.736 78.3878 455.288 78.3878Z" fill="url(#paint34_linear_446_5703)"/>
<path d="M455.288 75.7227C466.787 75.7227 476.109 62.6333 476.109 46.4868C476.109 30.3402 466.787 17.2509 455.288 17.2509C443.79 17.2509 434.468 30.3402 434.468 46.4868C434.468 62.6333 443.79 75.7227 455.288 75.7227Z" fill="url(#paint35_radial_446_5703)"/>
<path d="M466.239 35.9068H444.337L455.288 42.0932L466.239 35.9068Z" fill="#FFFFFD"/>
<path d="M455.482 44.726C455.418 44.7406 455.352 44.7406 455.288 44.726H455.094L441.672 37.1344V55.3705C441.672 56.7111 442.447 57.8095 443.4 57.8095H467.176C468.129 57.8095 468.905 56.7111 468.905 55.3705V37.1344L455.482 44.726Z" fill="url(#paint36_linear_446_5703)"/>
<path d="M356.785 197.223L381.027 183.227L375.179 173.099L350.938 187.095L356.785 197.223Z" fill="#FDB9A2"/>
<path d="M383.216 183.863C377.756 186.318 374.865 184.202 374.057 183.362C370.116 179.324 370.164 173.752 375.462 169.439C378.174 167.091 381.07 164.963 384.12 163.075C387.9 160.62 394.716 173.235 394.716 173.235C395.346 174.091 394.393 175.609 391.389 178.307C388.838 180.402 386.102 182.261 383.216 183.863Z" fill="#FDB9A2"/>
<path d="M380.47 166.402C379.795 166.57 379.169 166.897 378.645 167.355C378.479 167.521 378.351 167.721 378.27 167.942C378.189 168.162 378.157 168.397 378.176 168.631C378.237 169.155 378.356 169.669 378.532 170.166L378.936 171.135L379.469 172.153C379.985 173.159 380.08 174.33 379.733 175.407C379.386 176.484 378.626 177.379 377.619 177.895C376.613 178.411 375.442 178.506 374.365 178.159C373.288 177.812 372.393 177.052 371.877 176.045C371.59 175.478 371.43 174.855 371.409 174.22V174.123V172.233C371.409 171.587 371.505 170.893 371.57 170.247C371.768 168.746 372.292 167.308 373.105 166.031C374.009 164.726 375.34 163.778 376.868 163.35C378.161 163.001 379.519 162.973 380.825 163.269C381.149 163.363 381.435 163.555 381.644 163.82C381.852 164.084 381.973 164.407 381.989 164.743C382.005 165.08 381.915 165.413 381.733 165.696C381.55 165.979 381.284 166.197 380.971 166.322L380.47 166.402Z" fill="#FDB9A2"/>
<path d="M380.276 164.092L394.28 156.129C394.709 155.855 395.229 155.762 395.725 155.871C396.222 155.98 396.655 156.282 396.929 156.711C397.203 157.139 397.296 157.659 397.187 158.156C397.078 158.653 396.776 159.086 396.348 159.36L383.668 168.761L383.474 168.89C383.175 169.145 382.826 169.337 382.45 169.452C382.073 169.567 381.677 169.604 381.286 169.56C380.894 169.516 380.516 169.392 380.175 169.195C379.833 168.999 379.536 168.735 379.301 168.419C379.066 168.103 378.898 167.742 378.809 167.359C378.719 166.975 378.709 166.577 378.779 166.19C378.849 165.803 378.998 165.434 379.217 165.106C379.436 164.779 379.719 164.5 380.05 164.286L380.276 164.092Z" fill="#FDB9A2"/>
<path d="M385.913 166.87C385.913 167.465 386.09 168.045 386.42 168.54C386.75 169.034 387.219 169.419 387.768 169.646C388.317 169.873 388.921 169.933 389.504 169.817C390.087 169.701 390.622 169.415 391.042 168.995C391.462 168.575 391.748 168.039 391.864 167.457C391.98 166.874 391.921 166.27 391.693 165.721C391.466 165.172 391.081 164.703 390.587 164.372C390.093 164.042 389.512 163.866 388.918 163.866C388.121 163.866 387.357 164.183 386.793 164.746C386.23 165.309 385.913 166.074 385.913 166.87Z" fill="#FDB9A2"/>
<path d="M387.658 170.133C387.655 170.728 387.829 171.311 388.157 171.807C388.485 172.303 388.953 172.691 389.502 172.92C390.05 173.15 390.655 173.212 391.239 173.098C391.823 172.984 392.359 172.699 392.781 172.28C393.203 171.86 393.491 171.325 393.608 170.742C393.725 170.158 393.667 169.553 393.44 169.003C393.213 168.454 392.828 167.983 392.333 167.653C391.839 167.322 391.257 167.145 390.663 167.145C389.869 167.145 389.107 167.459 388.544 168.019C387.981 168.579 387.663 169.339 387.658 170.133Z" fill="#FDB9A2"/>
<path d="M389.289 173.849C389.289 174.443 389.466 175.025 389.797 175.519C390.128 176.014 390.598 176.399 391.148 176.626C391.698 176.853 392.303 176.911 392.886 176.794C393.469 176.677 394.004 176.389 394.424 175.967C394.843 175.545 395.128 175.009 395.242 174.425C395.356 173.841 395.295 173.236 395.065 172.688C394.835 172.139 394.447 171.671 393.951 171.343C393.455 171.015 392.872 170.841 392.278 170.844C391.884 170.844 391.494 170.922 391.13 171.073C390.767 171.224 390.437 171.446 390.159 171.725C389.881 172.004 389.661 172.336 389.512 172.7C389.363 173.064 389.287 173.455 389.289 173.849Z" fill="#FDB9A2"/>
<path d="M312.807 150.314L334.871 191.875L369.874 173.897L376.868 187.901C376.868 187.901 343.109 218.381 334.629 218.381C326.149 218.381 294.49 185.058 294.49 185.058L312.807 150.314Z" fill="#20294C"/>
<path d="M310.223 155.273C314.983 174.893 320.141 194.416 325.697 213.842C313.179 204.716 294.523 185.091 294.523 185.091L310.223 155.273Z" fill="#28397B"/>
<path d="M298.06 420.35L299.336 437.94L310.433 437.811C310.304 431.722 310.191 425.616 310.078 419.527L298.06 420.35Z" fill="#FFBE98"/>
<path d="M253.723 239.653C260.878 253.367 283.217 342.948 283.217 342.948C283.217 342.948 293.377 414.81 297.334 438.894C302.261 438.99 307.72 437.957 312.711 437.924C316.249 408.559 313.131 332.934 312.808 325.956C312.081 310.789 306.024 246.583 306.024 246.583C306.024 246.583 268.017 238.684 253.723 239.653Z" fill="url(#paint37_linear_446_5703)"/>
<path d="M253.723 239.653C260.878 253.367 283.217 342.948 283.217 342.948C283.217 342.948 293.377 414.81 297.334 438.894C302.261 438.99 307.72 437.957 312.711 437.924C316.249 408.559 313.131 332.934 312.808 325.956C312.081 310.789 306.024 246.583 306.024 246.583C306.024 246.583 268.017 238.684 253.723 239.653Z" fill="url(#paint38_linear_446_5703)"/>
<path d="M291.341 243.788C290.442 244.256 289.707 244.988 289.236 245.887C288.765 246.785 288.581 247.806 288.709 248.812C290.922 280.374 290.744 312 289.839 343.61C289.484 356.145 288.806 368.695 288.693 381.246C285.704 360.554 283.217 342.948 283.217 342.948C283.217 342.948 260.878 253.367 253.723 239.653C262.186 239.072 279.066 241.624 291.341 243.788Z" fill="url(#paint39_linear_446_5703)"/>
<path d="M297.366 442.899C297.366 441.704 297.252 439.976 297.366 438.893C297.339 438.685 297.359 438.473 297.424 438.273C297.488 438.072 297.596 437.889 297.739 437.735C297.882 437.581 298.058 437.46 298.253 437.381C298.448 437.302 298.658 437.267 298.868 437.278C300.305 437.133 302.308 437.278 303.713 437.165C304.652 437.131 305.568 436.866 306.38 436.392C307.192 435.919 307.874 435.252 308.365 434.451C308.769 433.902 308.705 433.434 309.189 432.836C310.078 431.635 311.355 430.779 312.804 430.414C314.253 430.048 315.784 430.197 317.136 430.833C320.06 432.449 322.37 434.888 326.198 435.808C330.026 436.729 335.227 437.698 336.099 442.269C323.188 442.517 310.277 442.727 297.366 442.899Z" fill="#251225"/>
<path d="M336.132 446.097L297.366 446.679C297.366 445.419 297.366 444.159 297.366 442.915L336.132 442.318C336.084 443.578 336.116 444.837 336.132 446.097Z" fill="#C28952"/>
<path d="M242.803 422.903C242.545 428.75 242.303 434.597 242.044 440.444L253.092 441.607L254.821 423.403L242.803 422.903Z" fill="#FFBE98"/>
<path d="M248.553 343.303L247.115 279.663L247.923 250.75L297.123 243.029L289.774 286.35L281.132 344.886C281.132 344.886 257.34 416.264 254.513 441.171C249.377 442.673 245.226 441.736 240.461 441.623C239.281 410.239 248.553 343.303 248.553 343.303Z" fill="url(#paint40_linear_446_5703)"/>
<path d="M260.651 343.949C260.651 343.949 246.356 419.575 241.527 441.042C241.527 441.268 241.43 441.494 241.365 441.72H240.461C239.282 410.271 248.537 343.336 248.537 343.336L247.099 279.695L247.907 250.782L267.435 247.713C265.029 255.87 260.651 343.949 260.651 343.949Z" fill="url(#paint41_linear_446_5703)"/>
<path d="M254.998 435.938C255.418 434.322 255.838 432.707 256.242 431.092C255.451 434.952 254.837 438.409 254.514 441.252L253.658 441.446C254.11 439.556 254.546 437.763 254.998 435.938Z" fill="url(#paint42_linear_446_5703)"/>
<path d="M248.683 433.482C247.245 433.402 245.824 433.337 244.386 433.305C243.153 433.295 241.94 433.613 240.87 434.226C239.8 434.839 238.912 435.725 238.297 436.794C237.908 437.445 237.442 438.047 236.908 438.587C230.786 444.854 231.077 447.584 231.077 447.584H256.081C256.081 443.529 256.194 440.703 256.081 438.247C254.518 437.539 253.137 436.484 252.043 435.162C251.631 434.663 251.119 434.256 250.541 433.967C249.962 433.678 249.329 433.513 248.683 433.482Z" fill="#251225"/>
<path d="M231.077 451.347V447.567H256.145V451.347" fill="#C28952"/>
<path d="M270.892 140.639L284.105 147.924L290.404 141.931C290.404 141.931 307.655 144.548 312.808 150.314C317.863 169.536 307.138 220.642 307.138 220.642L305.846 250.75H247.923L240.881 157.437C240.803 155.801 241.242 154.181 242.135 152.808C243.027 151.434 244.329 150.375 245.856 149.781L270.892 140.639Z" fill="#20294C"/>
<path d="M254.804 165.788C256.193 170.101 257.211 173.412 257.211 173.412L266.902 250.75H247.923L241.656 167.565C246.033 166.758 250.443 166.273 254.804 165.788Z" fill="#28397B"/>
<path d="M269.955 138.749C269.955 138.749 276.659 135.648 276.95 135.519C277.24 135.389 290.857 138.022 290.857 138.022L296.995 144.37L301.162 159.23L289.984 154.11L282.506 165.659L262.735 144.047L269.955 138.749Z" fill="#28397B"/>
<path d="M271.038 121.321L270.877 143.014L289.274 152.463L290.405 144.596L289.258 127.685L271.038 121.321Z" fill="#FDB9A2"/>
<path d="M271.005 126.199V121.353L289.225 127.717L290.372 144.629L290.242 145.517C283.862 139.121 277.304 132.66 271.005 126.199Z" fill="#E6A893"/>
<path d="M290.581 119.011C290.581 119.011 300.451 115.328 300.984 106.089C301.132 103.761 300.66 101.436 299.616 99.3499C298.571 97.2641 296.992 95.4929 295.039 94.217L288.401 95.8322L290.581 119.011Z" fill="url(#paint43_linear_446_5703)"/>
<path d="M293.199 93.5548C294.308 93.493 295.396 93.873 296.226 94.6116C297.055 95.3502 297.558 96.3873 297.625 97.496L299.095 123.162C299.167 124.364 299.001 125.568 298.607 126.706C298.214 127.844 297.599 128.893 296.8 129.793C296 130.693 295.031 131.427 293.947 131.952C292.864 132.477 291.687 132.784 290.485 132.854L285.543 133.128C282.578 132.929 279.751 131.799 277.467 129.898C274.59 127.678 272.387 124.703 271.103 121.305L270.036 102.487C269.971 101.486 270.105 100.482 270.429 99.5322C270.754 98.5829 271.264 97.7075 271.93 96.9565C272.595 96.2055 273.403 95.5938 274.306 95.1568C275.209 94.7199 276.19 94.4664 277.192 94.4109L293.199 93.5548Z" fill="#FDB9A2"/>
<path d="M291.681 114.892L293.102 117.993L292.359 119.011" stroke="#BD816D" stroke-width="0.92" stroke-linecap="round" stroke-linejoin="round"/>
<path d="M294.281 122.112C294.281 122.112 292.23 122.112 285.252 122.678C285.773 123.538 286.508 124.249 287.386 124.742C288.263 125.234 289.253 125.492 290.259 125.488C290.749 125.551 291.246 125.512 291.719 125.373C292.193 125.235 292.633 124.999 293.01 124.682C293.388 124.365 293.696 123.973 293.915 123.53C294.134 123.088 294.259 122.605 294.281 122.112Z" fill="white"/>
<path d="M303.262 95.9937C303.439 91.3579 301.016 86.4638 291.68 85.8338C286.027 85.4461 271.49 86.803 269.665 93.2639C266.935 92.0525 264.738 98.0289 264.528 99.8703C263.591 108.77 267.759 112.518 267.759 112.518C268.958 112.125 270.242 112.064 271.474 112.34C271.888 113.924 272.121 115.549 272.168 117.186H274.155C276.352 115.91 277.531 112.34 277.256 109.416C277.256 109.416 283.426 108.156 279.631 101.34C289.354 101.857 303.003 103.004 303.262 95.9937Z" fill="url(#paint44_linear_446_5703)"/>
<path d="M303.262 95.9937C303.439 91.3579 301.016 86.4638 291.68 85.8338C286.027 85.4461 271.49 86.803 269.665 93.2639C266.935 92.0525 264.738 98.0289 264.528 99.8703C263.591 108.77 267.759 112.518 267.759 112.518C268.958 112.125 270.242 112.064 271.474 112.34C271.888 113.924 272.121 115.549 272.168 117.186H274.155C276.352 115.91 277.531 112.34 277.256 109.416C277.256 109.416 283.426 108.156 279.631 101.34C289.354 101.857 303.003 103.004 303.262 95.9937Z" fill="url(#paint45_radial_446_5703)"/>
<path d="M271.409 93.1832C271.409 93.1832 268.792 91.4388 271.296 87.6429C271.296 87.6429 266.741 89.985 269.277 95.7192L271.409 93.1832Z" fill="url(#paint46_linear_446_5703)"/>
<path d="M283.571 113.277C283.571 113.971 284.056 114.504 284.557 114.488C285.057 114.472 285.445 113.858 285.397 113.164C285.348 112.469 284.928 111.936 284.411 111.968C283.894 112.001 283.539 112.647 283.571 113.277Z" fill="#251225"/>
<path d="M293.797 112.114C293.797 112.808 294.265 113.358 294.782 113.325C295.299 113.293 295.654 112.711 295.622 112.017C295.59 111.322 295.137 110.773 294.636 110.805C294.136 110.838 293.748 111.419 293.797 112.114Z" fill="#251225"/>
<path d="M267.225 117.735C268.356 120.271 270.633 121.725 272.313 120.966C273.993 120.206 274.462 117.557 273.331 115.021C272.2 112.486 269.939 111.032 268.243 111.791C266.547 112.55 266.111 115.199 267.225 117.735Z" fill="#FDB9A2"/>
<path d="M286.673 109.255C285.655 109.497 284.799 109.643 283.992 109.917C283.129 110.228 282.282 110.584 281.456 110.983C281.37 111.022 281.273 111.024 281.185 110.991C281.097 110.958 281.026 110.891 280.987 110.806C280.955 110.717 280.955 110.62 280.987 110.531C281.179 109.979 281.506 109.484 281.94 109.093C282.406 108.681 282.958 108.378 283.556 108.205C284.119 108.003 284.724 107.939 285.317 108.021C285.911 108.103 286.476 108.326 286.964 108.673C286.993 108.702 287.015 108.736 287.031 108.773C287.047 108.811 287.055 108.851 287.055 108.892C287.055 108.932 287.047 108.972 287.031 109.01C287.015 109.047 286.993 109.081 286.964 109.11C286.944 109.14 286.918 109.166 286.887 109.185C286.856 109.205 286.822 109.217 286.786 109.223L286.673 109.255Z" fill="#3A1B18"/>
<path d="M292.003 108.286C292.188 107.982 292.433 107.719 292.724 107.514C293.015 107.309 293.344 107.166 293.692 107.093C294.041 107.021 294.4 107.02 294.749 107.092C295.097 107.164 295.427 107.306 295.718 107.51C296.11 107.776 296.405 108.161 296.558 108.609C296.58 108.682 296.574 108.76 296.541 108.829C296.508 108.897 296.451 108.951 296.38 108.98H296.235C295.346 108.98 294.83 108.851 294.264 108.819C293.699 108.787 293.134 108.819 292.294 108.706C292.256 108.704 292.219 108.694 292.186 108.677C292.152 108.661 292.122 108.637 292.098 108.608C292.074 108.58 292.056 108.546 292.045 108.51C292.034 108.474 292.031 108.436 292.035 108.399C292.017 108.364 292.006 108.325 292.003 108.286Z" fill="#3A1B18"/>
<path d="M257.34 232.401C257.891 232.631 258.362 233.019 258.693 233.517C259.023 234.014 259.199 234.598 259.198 235.195L260.587 239.153L260.361 242.157C260.39 242.686 260.216 243.205 259.876 243.611C258.826 244.919 256.92 244.822 256.646 243.433L256.743 239.04L254.643 235.115L257.34 232.401Z" fill="#FDB9A2"/>
<path d="M244.418 223.598L252.963 231.141C253.25 231.39 253.472 231.707 253.609 232.062L257.76 241.059C257.842 241.301 257.967 241.525 258.131 241.721L260.344 242.69C261.41 243.998 261.653 244.661 259.408 246.437C257.162 248.214 254.11 251.574 251.331 251.477C249.49 251.477 245.129 251.945 243.82 250.637C243.449 250.266 242.997 250.007 242.787 249.539L235.712 230.156C235.484 229.667 235.43 229.116 235.56 228.593C235.689 228.07 235.993 227.606 236.423 227.281L241.43 223.533C241.857 223.194 242.39 223.015 242.936 223.027C243.481 223.039 244.006 223.241 244.418 223.598Z" fill="#FDB9A2"/>
<path d="M258.326 241.785L260.377 242.69C261.443 243.998 261.685 244.66 259.44 246.437C257.195 248.214 254.142 251.574 251.364 251.477C249.523 251.477 245.161 251.945 243.853 250.637L243.352 250.185C248.628 247.925 253.647 245.109 258.326 241.785Z" fill="#E6A893"/>
<path d="M247.875 226.618L257.405 232.401L259.117 235.518C259.265 235.782 259.351 236.076 259.366 236.377C259.382 236.679 259.327 236.98 259.207 237.257C259.086 237.534 258.903 237.78 258.672 237.974C258.44 238.168 258.167 238.306 257.873 238.377L252.382 239.767L247.875 226.618Z" fill="#FDB9A2"/>
<path d="M244.839 150.185C244.839 150.185 219.205 167.291 205.168 183.088C203.649 184.823 202.787 187.037 202.734 189.342C202.681 191.648 203.439 193.899 204.878 195.703L237.554 235.648L250.476 227.959L229.478 192.036L255.322 180.632C255.322 180.632 267.484 174.171 267.613 162.38C267.743 150.589 244.839 150.185 244.839 150.185Z" fill="#20294C"/>
<path d="M129.009 363.542C126.716 348.311 121.272 329.622 113.293 317.217C109.192 310.375 103.799 304.395 97.4152 299.611C96.4838 301.349 95.3566 302.975 94.0555 304.457C94.5634 302.228 94.6999 299.93 94.4593 297.657C87.5623 293.295 81.182 291.713 77.677 292.73C72.8312 294.103 72.6212 299.837 78.3877 310.191C82.4954 312.544 87.2615 313.486 91.9557 312.872C88.474 313.961 84.8824 314.659 81.2467 314.956C84.4253 319.837 87.8485 324.554 91.5034 329.089C108.496 352.203 114.618 369.05 117.88 379.63C121.143 390.21 121.111 394.7 121.111 394.765C124.341 393.344 127.631 391.997 130.98 390.727C131.073 381.626 130.414 372.534 129.009 363.542Z" fill="url(#paint47_linear_446_5703)"/>
<path d="M125.262 392.552C125.052 392.548 124.851 392.464 124.701 392.317C124.551 392.17 124.463 391.971 124.455 391.761C123.469 332.788 87.0779 303.988 86.7064 303.698C86.5411 303.564 86.4337 303.372 86.4066 303.162C86.3795 302.951 86.4348 302.738 86.5611 302.567C86.6949 302.397 86.8902 302.287 87.1047 302.259C87.3193 302.232 87.536 302.29 87.7079 302.422C88.0794 302.712 125.068 331.997 126.07 391.728C126.072 391.834 126.053 391.94 126.015 392.039C125.976 392.137 125.918 392.228 125.845 392.304C125.771 392.381 125.683 392.442 125.586 392.484C125.489 392.527 125.384 392.55 125.278 392.552H125.262Z" fill="url(#paint48_radial_446_5703)"/>
<path d="M100.662 318.413H100.484C98.1409 318.06 95.76 318.033 93.4093 318.332C93.1974 318.359 92.9831 318.302 92.8135 318.172C92.644 318.041 92.533 317.849 92.5048 317.637C92.4889 317.532 92.4945 317.425 92.5211 317.322C92.5477 317.218 92.5948 317.122 92.6596 317.037C92.7245 316.953 92.8057 316.882 92.8985 316.83C92.9912 316.778 93.0935 316.745 93.1994 316.733C95.7429 316.39 98.3233 316.428 100.856 316.846C101.063 316.896 101.242 317.026 101.354 317.207C101.466 317.389 101.502 317.607 101.453 317.815C101.404 317.987 101.3 318.138 101.158 318.246C101.015 318.354 100.841 318.413 100.662 318.413Z" fill="url(#paint49_radial_446_5703)"/>
<path d="M98.8525 315.893C98.6569 315.89 98.4688 315.817 98.3232 315.686C98.1777 315.556 98.0845 315.376 98.061 315.182C97.7225 312.909 98.1067 310.587 99.1594 308.544C99.2699 308.363 99.4469 308.233 99.6524 308.182C99.8578 308.13 100.075 308.162 100.258 308.269C100.35 308.321 100.431 308.391 100.496 308.474C100.561 308.558 100.608 308.654 100.635 308.757C100.663 308.859 100.669 308.966 100.654 309.071C100.639 309.176 100.603 309.277 100.548 309.367C99.6881 311.101 99.3781 313.057 99.6601 314.972C99.6876 315.184 99.63 315.398 99.4998 315.568C99.3696 315.738 99.1775 315.849 98.9656 315.877L98.8525 315.893Z" fill="url(#paint50_radial_446_5703)"/>
<path d="M107.478 328.314C107.348 328.315 107.22 328.281 107.107 328.217C102.972 326.085 96.6884 326.973 96.6238 326.973C96.5177 326.988 96.4098 326.982 96.3061 326.955C96.2024 326.928 96.1051 326.881 96.0196 326.817C95.9341 326.752 95.8621 326.672 95.8078 326.579C95.7535 326.487 95.7179 326.385 95.7031 326.279C95.6882 326.173 95.6944 326.065 95.7213 325.961C95.7482 325.857 95.7952 325.76 95.8597 325.675C95.9242 325.589 96.0049 325.517 96.0972 325.463C96.1895 325.409 96.2915 325.373 96.3976 325.358C96.6722 325.358 103.262 324.405 107.85 326.763C108.038 326.866 108.179 327.038 108.243 327.244C108.306 327.449 108.287 327.671 108.189 327.862C108.125 327.996 108.024 328.11 107.899 328.19C107.773 328.27 107.627 328.313 107.478 328.314Z" fill="url(#paint51_radial_446_5703)"/>
<path d="M110.224 332.804C110.029 332.803 109.841 332.732 109.693 332.605C109.545 332.478 109.447 332.302 109.417 332.11C108.944 328.848 109.509 325.519 111.032 322.596C111.078 322.493 111.146 322.401 111.23 322.326C111.315 322.251 111.414 322.194 111.522 322.159C111.629 322.125 111.743 322.113 111.855 322.126C111.968 322.138 112.076 322.174 112.174 322.23C112.271 322.287 112.356 322.364 112.422 322.455C112.489 322.547 112.535 322.651 112.558 322.762C112.581 322.873 112.581 322.987 112.558 323.097C112.534 323.208 112.487 323.312 112.421 323.404C111.125 326.029 110.652 328.985 111.064 331.884C111.08 331.989 111.075 332.096 111.05 332.199C111.025 332.302 110.979 332.399 110.916 332.485C110.853 332.57 110.774 332.643 110.683 332.697C110.592 332.752 110.491 332.789 110.386 332.804H110.224Z" fill="url(#paint52_radial_446_5703)"/>
<path d="M119.059 354.077C118.929 354.078 118.801 354.045 118.687 353.98C114.326 351.735 107.704 352.672 107.639 352.672C107.428 352.7 107.214 352.645 107.042 352.519C106.87 352.392 106.754 352.204 106.718 351.994C106.69 351.782 106.745 351.568 106.872 351.396C106.998 351.225 107.187 351.109 107.397 351.073C107.688 351.073 114.601 350.071 119.43 352.559C119.525 352.607 119.608 352.673 119.677 352.753C119.745 352.834 119.797 352.928 119.828 353.028C119.86 353.129 119.871 353.235 119.861 353.341C119.851 353.446 119.82 353.548 119.77 353.641C119.702 353.772 119.6 353.881 119.475 353.958C119.35 354.035 119.206 354.076 119.059 354.077Z" fill="url(#paint53_radial_446_5703)"/>
<path d="M116.815 348.101C116.621 348.099 116.435 348.027 116.29 347.9C116.145 347.773 116.05 347.597 116.023 347.406C115.492 343.986 116.057 340.486 117.638 337.408C117.69 337.315 117.76 337.234 117.844 337.169C117.928 337.104 118.024 337.057 118.126 337.03C118.228 337.003 118.335 336.997 118.44 337.011C118.545 337.026 118.646 337.062 118.737 337.117C118.921 337.228 119.055 337.407 119.109 337.615C119.164 337.823 119.134 338.044 119.027 338.231C117.644 340.997 117.143 344.12 117.59 347.18C117.618 347.389 117.562 347.602 117.435 347.771C117.309 347.94 117.12 348.052 116.911 348.084L116.815 348.101Z" fill="url(#paint54_radial_446_5703)"/>
<path d="M148.57 360.748C151.042 341.187 150.864 316.248 145.34 298.222C142.682 288.367 138.122 279.127 131.917 271.021C130.167 272.806 128.222 274.388 126.118 275.738C127.522 273.17 128.488 270.386 128.977 267.5C122 259.731 114.715 255.563 110.014 255.596C103.553 255.596 101.341 262.59 104.829 277.337C109.061 281.688 114.606 284.526 120.61 285.413C115.941 285.54 111.272 285.156 106.687 284.266C108.512 290.259 111.064 297.188 114.392 305.264C127.314 339.637 128.929 362.525 129.3 376.69C129.3 390.888 128.073 396.38 128.057 396.445C132.531 395.831 137.054 395.33 141.625 394.91C144.873 383.733 147.197 372.307 148.57 360.748Z" fill="url(#paint55_linear_446_5703)"/>
<path d="M134.145 394.975C134.076 394.989 134.004 394.989 133.935 394.975C133.73 394.918 133.556 394.783 133.45 394.599C133.344 394.414 133.315 394.195 133.37 393.99C152.672 320.965 117.831 272.701 117.476 272.233C117.353 272.058 117.303 271.843 117.336 271.632C117.369 271.421 117.483 271.231 117.654 271.102C117.825 270.974 118.04 270.919 118.252 270.949C118.464 270.979 118.656 271.092 118.784 271.264C119.14 271.748 154.449 320.593 134.937 394.41C134.882 394.576 134.776 394.72 134.633 394.822C134.491 394.923 134.32 394.977 134.145 394.975Z" fill="url(#paint56_radial_446_5703)"/>
<path d="M129.736 295.04C129.598 295.041 129.464 295.001 129.348 294.927C126.566 293.657 123.619 292.787 120.593 292.343C120.38 292.311 120.188 292.196 120.058 292.024C119.928 291.852 119.871 291.636 119.899 291.422C119.935 291.212 120.051 291.023 120.222 290.897C120.394 290.77 120.608 290.715 120.82 290.744C124.041 291.203 127.177 292.14 130.123 293.522C130.217 293.572 130.299 293.641 130.366 293.724C130.433 293.807 130.483 293.902 130.513 294.004C130.543 294.106 130.553 294.213 130.541 294.319C130.53 294.424 130.498 294.527 130.446 294.62C130.378 294.749 130.275 294.856 130.15 294.93C130.025 295.004 129.881 295.042 129.736 295.04Z" fill="url(#paint57_radial_446_5703)"/>
<path d="M128.299 291.373H128.121C128.017 291.359 127.916 291.325 127.825 291.272C127.735 291.219 127.655 291.148 127.592 291.064C127.529 290.979 127.483 290.883 127.457 290.781C127.432 290.679 127.427 290.573 127.443 290.469C127.803 287.603 129.058 284.924 131.029 282.813C131.186 282.683 131.386 282.617 131.59 282.629C131.793 282.641 131.985 282.729 132.126 282.877C132.267 283.024 132.347 283.219 132.35 283.423C132.353 283.626 132.28 283.824 132.143 283.975C130.444 285.844 129.361 288.19 129.042 290.695C129.01 290.874 128.92 291.038 128.786 291.161C128.652 291.283 128.48 291.358 128.299 291.373Z" fill="url(#paint58_radial_446_5703)"/>
<path d="M134.582 309.674C134.372 309.672 134.171 309.591 134.017 309.448C129.64 305.345 121.515 304.231 121.434 304.215C121.329 304.203 121.226 304.17 121.134 304.117C121.041 304.065 120.96 303.994 120.895 303.91C120.83 303.826 120.783 303.729 120.756 303.626C120.729 303.523 120.724 303.415 120.74 303.31C120.768 303.098 120.879 302.906 121.049 302.776C121.218 302.646 121.432 302.588 121.644 302.615C122 302.615 130.35 303.811 135.132 308.269C135.207 308.344 135.267 308.433 135.308 308.532C135.349 308.63 135.37 308.736 135.37 308.842C135.37 308.949 135.349 309.054 135.308 309.153C135.267 309.251 135.207 309.341 135.132 309.416C134.987 309.567 134.791 309.659 134.582 309.674Z" fill="url(#paint59_radial_446_5703)"/>
<path d="M136.407 316.167H136.294C136.082 316.139 135.89 316.028 135.76 315.859C135.63 315.689 135.572 315.475 135.599 315.263C136.127 311.128 137.941 307.263 140.784 304.214C140.941 304.085 141.142 304.019 141.345 304.031C141.549 304.043 141.74 304.131 141.881 304.279C142.022 304.426 142.103 304.621 142.106 304.825C142.109 305.028 142.035 305.226 141.899 305.377C139.338 308.19 137.698 311.718 137.198 315.489C137.171 315.679 137.076 315.852 136.93 315.977C136.785 316.102 136.599 316.169 136.407 316.167Z" fill="url(#paint60_radial_446_5703)"/>
<path d="M139.896 345.436C139.686 345.434 139.484 345.353 139.331 345.21C134.695 340.881 126.134 339.702 126.053 339.702C125.842 339.673 125.649 339.562 125.519 339.393C125.389 339.223 125.331 339.009 125.359 338.797C125.371 338.691 125.404 338.589 125.456 338.496C125.508 338.403 125.579 338.322 125.663 338.257C125.748 338.193 125.845 338.145 125.948 338.119C126.051 338.092 126.158 338.087 126.263 338.103C126.635 338.103 135.422 339.346 140.445 344.03C140.521 344.106 140.581 344.195 140.622 344.293C140.663 344.392 140.684 344.497 140.684 344.604C140.684 344.71 140.663 344.816 140.622 344.914C140.581 345.013 140.521 345.102 140.445 345.177C140.376 345.255 140.291 345.318 140.197 345.362C140.103 345.407 140 345.432 139.896 345.436Z" fill="url(#paint61_radial_446_5703)"/>
<path d="M139.136 337.262H139.023C138.814 337.23 138.626 337.118 138.499 336.949C138.373 336.78 138.317 336.567 138.345 336.358C138.89 332.013 140.789 327.95 143.772 324.744C143.929 324.615 144.13 324.549 144.333 324.561C144.537 324.573 144.728 324.661 144.869 324.808C145.01 324.956 145.09 325.151 145.094 325.354C145.097 325.558 145.023 325.756 144.887 325.907C142.188 328.872 140.463 332.593 139.944 336.568C139.913 336.76 139.815 336.936 139.668 337.063C139.52 337.19 139.331 337.261 139.136 337.262Z" fill="url(#paint62_radial_446_5703)"/>
<path d="M143.03 363.542C145.34 348.311 150.767 329.622 158.763 317.217C162.859 310.371 168.252 304.39 174.64 299.611C175.572 301.349 176.699 302.975 178 304.457C177.484 302.229 177.348 299.93 177.596 297.657C184.493 293.295 190.857 291.713 194.379 292.73C199.224 294.103 199.418 299.837 193.668 310.191C189.56 312.543 184.794 313.485 180.1 312.872C183.576 313.959 187.162 314.658 190.793 314.956C187.626 319.841 184.208 324.558 180.552 329.089C163.56 352.203 157.438 369.05 154.159 379.63C150.88 390.21 150.929 394.7 150.929 394.765C147.698 393.344 144.403 391.997 141.043 390.727C140.965 381.626 141.629 372.535 143.03 363.542Z" fill="url(#paint63_linear_446_5703)"/>
<path d="M146.777 392.552C146.564 392.544 146.363 392.453 146.215 392.3C146.068 392.146 145.985 391.941 145.985 391.728C147.003 331.965 183.992 302.712 184.364 302.422C184.446 302.349 184.543 302.294 184.648 302.26C184.753 302.227 184.864 302.215 184.974 302.225C185.084 302.236 185.19 302.269 185.286 302.323C185.383 302.376 185.467 302.448 185.535 302.536C185.602 302.623 185.651 302.723 185.678 302.83C185.705 302.937 185.71 303.048 185.693 303.157C185.676 303.266 185.636 303.37 185.577 303.463C185.518 303.556 185.44 303.636 185.349 303.698C184.977 303.989 148.602 332.772 147.601 391.761C147.598 391.867 147.576 391.971 147.533 392.069C147.49 392.166 147.429 392.254 147.353 392.327C147.276 392.401 147.186 392.458 147.087 392.497C146.988 392.536 146.883 392.554 146.777 392.552Z" fill="url(#paint64_radial_446_5703)"/>
<path d="M171.361 318.413C171.177 318.413 170.998 318.351 170.854 318.237C170.71 318.122 170.61 317.962 170.569 317.783C170.521 317.575 170.556 317.356 170.668 317.175C170.78 316.993 170.96 316.863 171.167 316.814C173.699 316.396 176.28 316.358 178.823 316.701C179.035 316.729 179.227 316.84 179.358 317.009C179.488 317.179 179.545 317.393 179.518 317.605C179.486 317.815 179.374 318.005 179.205 318.134C179.037 318.264 178.825 318.323 178.613 318.3C176.263 318 173.882 318.028 171.539 318.38L171.361 318.413Z" fill="url(#paint65_radial_446_5703)"/>
<path d="M173.186 315.893H173.073C172.864 315.861 172.676 315.748 172.549 315.579C172.422 315.41 172.367 315.198 172.395 314.988C172.664 313.073 172.355 311.121 171.506 309.384C171.452 309.293 171.416 309.192 171.401 309.087C171.386 308.982 171.392 308.875 171.419 308.773C171.446 308.67 171.494 308.574 171.559 308.491C171.624 308.407 171.705 308.337 171.797 308.285C171.98 308.178 172.197 308.146 172.402 308.198C172.608 308.249 172.785 308.379 172.895 308.56C173.948 310.603 174.332 312.925 173.994 315.198C173.963 315.391 173.865 315.567 173.717 315.694C173.569 315.821 173.381 315.892 173.186 315.893Z" fill="url(#paint66_radial_446_5703)"/>
<path d="M164.577 328.314C164.392 328.319 164.212 328.26 164.065 328.148C163.919 328.035 163.815 327.876 163.772 327.697C163.728 327.517 163.747 327.328 163.826 327.162C163.905 326.995 164.039 326.86 164.205 326.78C168.792 324.421 175.366 325.342 175.657 325.374C175.871 325.406 176.064 325.522 176.193 325.697C176.321 325.871 176.376 326.089 176.344 326.303C176.311 326.517 176.196 326.71 176.021 326.839C175.847 326.967 175.629 327.022 175.415 326.99C175.415 326.99 169.067 326.101 164.948 328.233C164.832 328.288 164.705 328.315 164.577 328.314Z" fill="url(#paint67_radial_446_5703)"/>
<path d="M161.831 332.804H161.718C161.505 332.772 161.312 332.658 161.183 332.486C161.053 332.314 160.995 332.098 161.023 331.884C161.457 328.99 160.983 326.033 159.666 323.42C159.56 323.233 159.53 323.012 159.585 322.803C159.639 322.595 159.773 322.416 159.957 322.305C160.048 322.251 160.149 322.215 160.254 322.2C160.359 322.185 160.465 322.191 160.568 322.218C160.67 322.245 160.766 322.293 160.85 322.358C160.934 322.423 161.004 322.504 161.056 322.596C162.587 325.517 163.152 328.848 162.671 332.11C162.643 332.31 162.541 332.492 162.386 332.62C162.23 332.749 162.032 332.814 161.831 332.804Z" fill="url(#paint68_radial_446_5703)"/>
<path d="M152.996 354.077C152.846 354.077 152.7 354.037 152.572 353.96C152.444 353.883 152.339 353.773 152.269 353.641C152.173 353.45 152.157 353.23 152.223 353.027C152.29 352.824 152.434 352.656 152.624 352.559C157.47 350.072 164.351 351.041 164.658 351.073C164.872 351.105 165.065 351.221 165.193 351.395C165.322 351.569 165.376 351.788 165.344 352.002C165.312 352.216 165.196 352.409 165.022 352.537C164.848 352.666 164.63 352.72 164.415 352.688C164.415 352.688 157.712 351.751 153.367 353.997C153.251 354.051 153.124 354.079 152.996 354.077Z" fill="url(#paint69_radial_446_5703)"/>
<path d="M155.29 348.101H155.177C154.968 348.069 154.78 347.956 154.653 347.787C154.526 347.618 154.47 347.406 154.498 347.196C154.951 344.136 154.449 341.012 153.061 338.248C152.952 338.063 152.921 337.843 152.972 337.635C153.023 337.427 153.154 337.247 153.335 337.133C153.522 337.026 153.744 336.997 153.952 337.051C154.16 337.106 154.339 337.239 154.45 337.424C156.014 340.508 156.579 344.003 156.065 347.422C156.032 347.607 155.937 347.774 155.797 347.898C155.656 348.021 155.477 348.093 155.29 348.101Z" fill="url(#paint70_radial_446_5703)"/>
<path d="M153.819 450.862H116.814C115.615 450.862 114.454 450.439 113.536 449.668C112.617 448.897 112 447.827 111.791 446.647L102.729 394.329C102.602 393.596 102.637 392.845 102.831 392.127C103.024 391.409 103.373 390.742 103.851 390.172C104.33 389.603 104.927 389.145 105.601 388.831C106.275 388.517 107.009 388.353 107.753 388.352H162.881C163.625 388.353 164.359 388.517 165.033 388.831C165.707 389.145 166.304 389.603 166.783 390.172C167.261 390.742 167.609 391.409 167.803 392.127C167.997 392.845 168.031 393.596 167.904 394.329L158.811 446.566C158.62 447.756 158.014 448.84 157.101 449.627C156.187 450.413 155.025 450.851 153.819 450.862Z" fill="url(#paint71_linear_446_5703)"/>
<path d="M168.146 381.245H102.503C99.6839 381.245 97.3987 383.531 97.3987 386.35V395.896C97.3987 398.715 99.6839 401 102.503 401H168.146C170.965 401 173.25 398.715 173.25 395.896V386.35C173.25 383.531 170.965 381.245 168.146 381.245Z" fill="url(#paint72_linear_446_5703)"/>
<path d="M168.146 381.245H156.63C153.544 395.944 149.119 410.481 141.705 423.629C135.807 434.145 127.898 443.399 118.429 450.862H153.964C155.164 450.862 156.324 450.439 157.243 449.668C158.161 448.897 158.779 447.827 158.988 446.647L166.902 401.081H168.292C169.641 401.081 170.935 400.545 171.889 399.59C172.844 398.636 173.38 397.342 173.38 395.993V386.414C173.391 385.727 173.263 385.044 173.003 384.408C172.743 383.771 172.357 383.194 171.868 382.711C171.379 382.228 170.797 381.849 170.157 381.597C169.517 381.345 168.833 381.226 168.146 381.245Z" fill="url(#paint73_linear_446_5703)"/>
<path d="M264.383 68.0502C262.811 68.0502 261.274 67.5842 259.967 66.7109C258.661 65.8377 257.642 64.5965 257.04 63.1444C256.439 61.6923 256.282 60.0944 256.588 58.5529C256.895 57.0113 257.652 55.5953 258.763 54.4839C259.875 53.3725 261.291 52.6156 262.832 52.3089C264.374 52.0023 265.972 52.1597 267.424 52.7612C268.876 53.3627 270.117 54.3813 270.99 55.6881C271.863 56.995 272.33 58.5315 272.33 60.1033C272.33 62.2109 271.492 64.2323 270.002 65.7226C268.512 67.213 266.49 68.0502 264.383 68.0502ZM264.383 53.7553C263.118 53.7557 261.882 54.1329 260.832 54.8388C259.783 55.5447 258.967 56.5474 258.49 57.7188C258.013 58.8901 257.896 60.1771 258.154 61.4154C258.411 62.6537 259.032 63.7872 259.936 64.6712C260.841 65.5551 261.989 66.1495 263.232 66.3784C264.476 66.6073 265.76 66.4603 266.92 65.9563C268.08 65.4522 269.064 64.6139 269.745 63.5484C270.427 62.4829 270.775 61.2385 270.747 59.974C270.734 58.2961 270.057 56.6914 268.865 55.511C267.672 54.3305 266.061 53.6703 264.383 53.6746V53.7553Z" fill="url(#paint74_radial_446_5703)"/>
<path d="M597.688 25.1817C596.12 25.1785 594.588 24.7106 593.286 23.8372C591.984 22.9638 590.97 21.7241 590.372 20.2747C589.774 18.8252 589.62 17.2311 589.927 15.6937C590.235 14.1564 590.992 12.7447 592.102 11.6372C593.211 10.5297 594.625 9.77593 596.163 9.47122C597.701 9.16652 599.294 9.32451 600.743 9.92525C602.191 10.526 603.429 11.5425 604.299 12.8464C605.17 14.1502 605.635 15.683 605.635 17.2508C605.635 18.2937 605.429 19.3263 605.03 20.2896C604.63 21.2528 604.044 22.1278 603.306 22.8645C602.568 23.6012 601.692 24.185 600.728 24.5826C599.764 24.9802 598.731 25.1838 597.688 25.1817ZM597.688 10.8868C596.429 10.8868 595.199 11.26 594.152 11.9593C593.106 12.6586 592.29 13.6525 591.808 14.8154C591.326 15.9783 591.2 17.2579 591.446 18.4924C591.692 19.7269 592.298 20.8609 593.188 21.7509C594.078 22.6409 595.212 23.247 596.446 23.4926C597.681 23.7382 598.96 23.6121 600.123 23.1304C601.286 22.6488 602.28 21.8331 602.979 20.7865C603.678 19.74 604.052 18.5095 604.052 17.2508C604.052 15.563 603.381 13.9442 602.188 12.7508C600.994 11.5573 599.376 10.8868 597.688 10.8868Z" fill="url(#paint75_radial_446_5703)"/>
<path d="M156.259 35.3898C154.686 35.393 153.147 34.9292 151.837 34.0572C150.528 33.1853 149.507 31.9443 148.904 30.4915C148.3 29.0387 148.141 27.4395 148.447 25.8964C148.754 24.3534 149.511 22.9358 150.623 21.8235C151.736 20.7111 153.153 19.9539 154.696 19.6478C156.239 19.3416 157.838 19.5004 159.291 20.1039C160.744 20.7074 161.985 21.7285 162.857 23.0378C163.729 24.3472 164.193 25.8858 164.189 27.459C164.185 29.5611 163.348 31.5758 161.862 33.0622C160.376 34.5486 158.361 35.3855 156.259 35.3898ZM156.259 21.0949C155 21.0949 153.77 21.4682 152.723 22.1675C151.676 22.8668 150.861 23.8607 150.379 25.0236C149.897 26.1864 149.771 27.466 150.017 28.7005C150.262 29.9351 150.869 31.069 151.759 31.9591C152.649 32.8491 153.783 33.4552 155.017 33.7008C156.252 33.9463 157.531 33.8203 158.694 33.3386C159.857 32.8569 160.851 32.0412 161.55 30.9947C162.249 29.9481 162.623 28.7177 162.623 27.459C162.623 25.7711 161.952 24.1524 160.759 22.9589C159.565 21.7654 157.947 21.0949 156.259 21.0949Z" fill="url(#paint76_radial_446_5703)"/>
<path d="M138.329 185.753C135.834 185.753 133.395 185.013 131.321 183.627C129.246 182.241 127.629 180.27 126.675 177.965C125.72 175.66 125.47 173.124 125.957 170.677C126.444 168.23 127.645 165.982 129.409 164.217C131.173 162.453 133.421 161.252 135.868 160.765C138.315 160.278 140.852 160.528 143.157 161.483C145.462 162.438 147.432 164.055 148.818 166.129C150.205 168.204 150.944 170.643 150.944 173.138C150.944 176.483 149.615 179.692 147.25 182.058C144.884 184.424 141.675 185.753 138.329 185.753ZM138.329 163.026C136.33 163.026 134.375 163.619 132.712 164.73C131.049 165.841 129.753 167.421 128.988 169.268C128.222 171.116 128.022 173.149 128.412 175.11C128.802 177.072 129.765 178.873 131.18 180.288C132.594 181.702 134.395 182.665 136.357 183.055C138.318 183.445 140.351 183.245 142.199 182.479C144.047 181.714 145.626 180.418 146.737 178.755C147.848 177.092 148.441 175.138 148.441 173.138C148.437 170.457 147.37 167.888 145.475 165.993C143.579 164.097 141.01 163.031 138.329 163.026Z" fill="url(#paint77_radial_446_5703)"/>
<path d="M7.54321 354.158C6.05382 354.161 4.59696 353.722 3.35703 352.897C2.11709 352.072 1.14981 350.898 0.577627 349.523C0.00544681 348.148 -0.145942 346.634 0.142663 345.172C0.431269 343.711 1.1469 342.369 2.19893 341.314C3.25096 340.26 4.59209 339.542 6.05263 339.25C7.51317 338.958 9.02747 339.106 10.4038 339.675C11.7801 340.245 12.9566 341.209 13.7844 342.447C14.6122 343.686 15.0541 345.142 15.0541 346.631C15.0541 348.624 14.2632 350.537 12.8551 351.948C11.4471 353.359 9.5367 354.154 7.54321 354.158ZM7.54321 340.606C6.35161 340.606 5.18673 340.959 4.19595 341.621C3.20517 342.283 2.43297 343.224 1.97696 344.325C1.52096 345.426 1.40166 346.638 1.63413 347.806C1.8666 348.975 2.4404 350.049 3.28299 350.891C4.12558 351.734 5.1991 352.308 6.36781 352.54C7.53652 352.772 8.7479 352.653 9.8488 352.197C10.9497 351.741 11.8907 350.969 12.5527 349.978C13.2147 348.987 13.568 347.823 13.568 346.631C13.568 345.84 13.4122 345.056 13.1095 344.325C12.8067 343.594 12.3629 342.93 11.8034 342.371C11.244 341.811 10.5798 341.367 9.8488 341.065C9.11783 340.762 8.3344 340.606 7.54321 340.606Z" fill="url(#paint78_radial_446_5703)"/>
<path d="M367.177 25.2301C364.682 25.2269 362.245 24.4843 360.172 23.0962C358.1 21.7081 356.486 19.7368 355.533 17.4314C354.581 15.126 354.334 12.5901 354.822 10.1441C355.311 7.69806 356.513 5.45179 358.278 3.68916C360.043 1.92653 362.291 0.726667 364.738 0.24122C367.184 -0.244226 369.72 0.00653867 372.024 0.961814C374.328 1.91709 376.297 3.534 377.683 5.60818C379.068 7.68237 379.808 10.1207 379.808 12.615C379.804 15.9622 378.471 19.1709 376.103 21.5362C373.734 23.9015 370.524 25.2301 367.177 25.2301ZM367.177 2.50362C365.177 2.50362 363.222 3.09664 361.559 4.2077C359.896 5.31876 358.6 6.89795 357.835 8.74557C357.07 10.5932 356.869 12.6262 357.26 14.5877C357.65 16.5491 358.613 18.3508 360.027 19.7649C361.441 21.179 363.243 22.142 365.204 22.5322C367.165 22.9223 369.198 22.7221 371.046 21.9568C372.894 21.1915 374.473 19.8954 375.584 18.2326C376.695 16.5698 377.288 14.6149 377.288 12.615C377.284 9.93462 376.217 7.36524 374.322 5.4699C372.426 3.57457 369.857 2.50789 367.177 2.50362Z" fill="url(#paint79_radial_446_5703)"/>
<defs>
<radialGradient id="paint0_radial_446_5703" cx="0" cy="0" r="1" gradientUnits="userSpaceOnUse" gradientTransform="translate(96.3813 383.087) scale(37.2798)">
<stop stop-color="white"/>
<stop offset="0.6" stop-color="#E8F1FF"/>
<stop offset="1" stop-color="#DFECFF"/>
</radialGradient>
<radialGradient id="paint1_radial_446_5703" cx="0" cy="0" r="1" gradientUnits="userSpaceOnUse" gradientTransform="translate(22755.4 18368) scale(1180.9 874.635)">
<stop stop-color="white"/>
<stop offset="0.6" stop-color="#E8F1FF"/>
<stop offset="1" stop-color="#DFECFF"/>
</radialGradient>
<radialGradient id="paint2_radial_446_5703" cx="0" cy="0" r="1" gradientUnits="userSpaceOnUse" gradientTransform="translate(14882.4 19504.8) scale(535.96 735.847)">
<stop stop-color="white"/>
<stop offset="0.6" stop-color="#E8F1FF"/>
<stop offset="1" stop-color="#DFECFF"/>
</radialGradient>
<radialGradient id="paint3_radial_446_5703" cx="0" cy="0" r="1" gradientUnits="userSpaceOnUse" gradientTransform="translate(46410.2 59038) rotate(6.91123) scale(5930.46 9132.13)">
<stop stop-color="white"/>
<stop offset="0.6" stop-color="#E8F1FF"/>
<stop offset="1" stop-color="#DFECFF"/>
</radialGradient>
<radialGradient id="paint4_radial_446_5703" cx="0" cy="0" r="1" gradientUnits="userSpaceOnUse" gradientTransform="translate(-15046.8 32994.9) rotate(180) scale(901.396 2122.26)">
<stop stop-color="white"/>
<stop offset="0.6" stop-color="#E8F1FF"/>
<stop offset="1" stop-color="#DFECFF"/>
</radialGradient>
<radialGradient id="paint5_radial_446_5703" cx="0" cy="0" r="1" gradientUnits="userSpaceOnUse" gradientTransform="translate(-23570 16234.6) rotate(180) scale(1142.43 765.489)">
<stop stop-color="white"/>
<stop offset="0.6" stop-color="#E8F1FF"/>
<stop offset="1" stop-color="#DFECFF"/>
</radialGradient>
<radialGradient id="paint6_radial_446_5703" cx="0" cy="0" r="1" gradientUnits="userSpaceOnUse" gradientTransform="translate(-15138.5 18935.5) rotate(180) scale(535.96 735.848)">
<stop stop-color="white"/>
<stop offset="0.6" stop-color="#E8F1FF"/>
<stop offset="1" stop-color="#DFECFF"/>
</radialGradient>
<radialGradient id="paint7_radial_446_5703" cx="0" cy="0" r="1" gradientUnits="userSpaceOnUse" gradientTransform="translate(-25078.4 46835.9) rotate(173.089) scale(10241.2 12075.8)">
<stop stop-color="white"/>
<stop offset="0.15" stop-color="#EDF4FF"/>
<stop offset="0.52" stop-color="#C5DAFF"/>
<stop offset="0.82" stop-color="#ACCAFF"/>
<stop offset="1" stop-color="#A3C4FF"/>
</radialGradient>
<radialGradient id="paint8_radial_446_5703" cx="0" cy="0" r="1" gradientUnits="userSpaceOnUse" gradientTransform="translate(-23847.8 57583.2) rotate(173.089) scale(5957.77 8525.01)">
<stop stop-color="white"/>
<stop offset="0.6" stop-color="#E8F1FF"/>
<stop offset="1" stop-color="#DFECFF"/>
</radialGradient>
<linearGradient id="paint9_linear_446_5703" x1="571.392" y1="245.84" x2="431.108" y2="245.84" gradientUnits="userSpaceOnUse">
<stop stop-color="#2F205F"/>
<stop offset="1" stop-color="#241170"/>
</linearGradient>
<radialGradient id="paint10_radial_446_5703" cx="0" cy="0" r="1" gradientUnits="userSpaceOnUse" gradientTransform="translate(630.009 -11.3227) rotate(180) scale(455.03 455.03)">
<stop stop-color="#ACBDF9"/>
<stop offset="0.3" stop-color="#7991FB" stop-opacity="0.69"/>
<stop offset="1" stop-color="#072FFF" stop-opacity="0"/>
</radialGradient>
<linearGradient id="paint11_linear_446_5703" x1="543.836" y1="150.621" x2="402.906" y2="452.171" gradientUnits="userSpaceOnUse">
<stop stop-color="#8096FF"/>
<stop offset="1" stop-color="#4C5FC2"/>
</linearGradient>
<linearGradient id="paint12_linear_446_5703" x1="68092.5" y1="75580.1" x2="124175" y2="104200" gradientUnits="userSpaceOnUse">
<stop stop-color="#FFE46E"/>
<stop offset="0.18" stop-color="#FFCD66"/>
<stop offset="0.74" stop-color="#FF8A4D"/>
<stop offset="1" stop-color="#FF7043"/>
</linearGradient>
<linearGradient id="paint13_linear_446_5703" x1="548.827" y1="180.164" x2="429.073" y2="180.164" gradientUnits="userSpaceOnUse">
<stop stop-color="#FFDC74"/>
<stop offset="0.45" stop-color="#FFC278"/>
<stop offset="1" stop-color="#FF9C7D"/>
</linearGradient>
<linearGradient id="paint14_linear_446_5703" x1="471.457" y1="406.362" x2="478.645" y2="421.74" gradientUnits="userSpaceOnUse">
<stop stop-color="#596FD9"/>
<stop offset="1" stop-color="#2F409C"/>
</linearGradient>
<linearGradient id="paint15_linear_446_5703" x1="75686.3" y1="22207.2" x2="96085.7" y2="22207.2" gradientUnits="userSpaceOnUse">
<stop stop-color="#2F205F"/>
<stop offset="1" stop-color="#241170"/>
</linearGradient>
<radialGradient id="paint16_radial_446_5703" cx="0" cy="0" r="1" gradientUnits="userSpaceOnUse" gradientTransform="translate(73466.7 16393.4) scale(17038.2 10146.9)">
<stop stop-color="#ACBDF9"/>
<stop offset="0.3" stop-color="#7991FB" stop-opacity="0.69"/>
<stop offset="1" stop-color="#072FFF" stop-opacity="0"/>
</radialGradient>
<radialGradient id="paint17_radial_446_5703" cx="0" cy="0" r="1" gradientUnits="userSpaceOnUse" gradientTransform="translate(-78836.8 20078.4) rotate(180) scale(33052.1 19692.3)">
<stop stop-color="white"/>
<stop offset="0.15" stop-color="#EDF4FF"/>
<stop offset="0.52" stop-color="#C5DAFF"/>
<stop offset="0.82" stop-color="#ACCAFF"/>
<stop offset="1" stop-color="#A3C4FF"/>
</radialGradient>
<linearGradient id="paint18_linear_446_5703" x1="-13556.2" y1="12330.8" x2="-13869.6" y2="9259.68" gradientUnits="userSpaceOnUse">
<stop stop-color="#2F205F"/>
<stop offset="1" stop-color="#241170"/>
</linearGradient>
<linearGradient id="paint19_linear_446_5703" x1="27925.6" y1="20033.9" x2="29210.6" y2="20033.9" gradientUnits="userSpaceOnUse">
<stop stop-color="#2F205F"/>
<stop offset="1" stop-color="#241170"/>
</linearGradient>
<linearGradient id="paint20_linear_446_5703" x1="2659.58" y1="20029.4" x2="2667.26" y2="20029.4" gradientUnits="userSpaceOnUse">
<stop stop-color="#2F205F"/>
<stop offset="1" stop-color="#241170"/>
</linearGradient>
<radialGradient id="paint21_radial_446_5703" cx="0" cy="0" r="1" gradientUnits="userSpaceOnUse" gradientTransform="translate(28426.4 20033.9) scale(840.85 1310.17)">
<stop stop-color="white"/>
<stop offset="0.15" stop-color="#EDF4FF"/>
<stop offset="0.52" stop-color="#C5DAFF"/>
<stop offset="0.82" stop-color="#ACCAFF"/>
<stop offset="1" stop-color="#A3C4FF"/>
</radialGradient>
<linearGradient id="paint22_linear_446_5703" x1="25905.9" y1="16875" x2="27724.4" y2="19000.1" gradientUnits="userSpaceOnUse">
<stop stop-color="#8096FF"/>
<stop offset="1" stop-color="#4C5FC2"/>
</linearGradient>
<linearGradient id="paint23_linear_446_5703" x1="3671.92" y1="20324.7" x2="3691.76" y2="20324.7" gradientUnits="userSpaceOnUse">
<stop stop-color="#2F205F"/>
<stop offset="1" stop-color="#241170"/>
</linearGradient>
<linearGradient id="paint24_linear_446_5703" x1="26480.9" y1="20329.6" x2="27810.9" y2="20329.6" gradientUnits="userSpaceOnUse">
<stop stop-color="#2F205F"/>
<stop offset="1" stop-color="#241170"/>
</linearGradient>
<linearGradient id="paint25_linear_446_5703" x1="26331.8" y1="20329.6" x2="27662.2" y2="20329.6" gradientUnits="userSpaceOnUse">
<stop stop-color="#8096FF"/>
<stop offset="1" stop-color="#4C5FC2"/>
</linearGradient>
<radialGradient id="paint26_radial_446_5703" cx="0" cy="0" r="1" gradientUnits="userSpaceOnUse" gradientTransform="translate(17046.6 16892.8) scale(1802.44 3500.95)">
<stop stop-color="white"/>
<stop offset="0.15" stop-color="#EDF4FF"/>
<stop offset="0.52" stop-color="#C5DAFF"/>
<stop offset="0.82" stop-color="#ACCAFF"/>
<stop offset="1" stop-color="#A3C4FF"/>
</radialGradient>
<linearGradient id="paint27_linear_446_5703" x1="6649.48" y1="7616.2" x2="6725.38" y2="7616.2" gradientUnits="userSpaceOnUse">
<stop stop-color="#8096FF"/>
<stop offset="1" stop-color="#4C5FC2"/>
</linearGradient>
<linearGradient id="paint28_linear_446_5703" x1="16718.6" y1="20792.5" x2="17751" y2="20792.5" gradientUnits="userSpaceOnUse">
<stop stop-color="#2F205F"/>
<stop offset="1" stop-color="#241170"/>
</linearGradient>
<linearGradient id="paint29_linear_446_5703" x1="3935.08" y1="20786.8" x2="3953.76" y2="20786.8" gradientUnits="userSpaceOnUse">
<stop stop-color="#2F205F"/>
<stop offset="1" stop-color="#241170"/>
</linearGradient>
<radialGradient id="paint30_radial_446_5703" cx="0" cy="0" r="1" gradientUnits="userSpaceOnUse" gradientTransform="translate(18536.9 20792.5) scale(519.241 1036.24)">
<stop stop-color="white"/>
<stop offset="0.15" stop-color="#EDF4FF"/>
<stop offset="0.52" stop-color="#C5DAFF"/>
<stop offset="0.82" stop-color="#ACCAFF"/>
<stop offset="1" stop-color="#A3C4FF"/>
</radialGradient>
<linearGradient id="paint31_linear_446_5703" x1="23750.9" y1="18196" x2="24951.9" y2="19737.8" gradientUnits="userSpaceOnUse">
<stop stop-color="#8096FF"/>
<stop offset="1" stop-color="#4C5FC2"/>
</linearGradient>
<linearGradient id="paint32_linear_446_5703" x1="26731.5" y1="9562.56" x2="28010.1" y2="9562.56" gradientUnits="userSpaceOnUse">
<stop stop-color="#2F205F"/>
<stop offset="1" stop-color="#241170"/>
</linearGradient>
<linearGradient id="paint33_linear_446_5703" x1="3683.48" y1="9557.09" x2="3702.05" y2="9557.09" gradientUnits="userSpaceOnUse">
<stop stop-color="#2F205F"/>
<stop offset="1" stop-color="#241170"/>
</linearGradient>
<linearGradient id="paint34_linear_446_5703" x1="26590.3" y1="9562.56" x2="27868.9" y2="9562.56" gradientUnits="userSpaceOnUse">
<stop stop-color="#8096FF"/>
<stop offset="1" stop-color="#4C5FC2"/>
</linearGradient>
<radialGradient id="paint35_radial_446_5703" cx="0" cy="0" r="1" gradientUnits="userSpaceOnUse" gradientTransform="translate(15870.9 5652.12) scale(1618.73 3196.42)">
<stop stop-color="white"/>
<stop offset="0.15" stop-color="#EDF4FF"/>
<stop offset="0.52" stop-color="#C5DAFF"/>
<stop offset="0.82" stop-color="#ACCAFF"/>
<stop offset="1" stop-color="#A3C4FF"/>
</radialGradient>
<linearGradient id="paint36_linear_446_5703" x1="16267.3" y1="3143.77" x2="16726.4" y2="3143.77" gradientUnits="userSpaceOnUse">
<stop stop-color="#8096FF"/>
<stop offset="1" stop-color="#4C5FC2"/>
</linearGradient>
<linearGradient id="paint37_linear_446_5703" x1="254.449" y1="388.013" x2="350.185" y2="224.212" gradientUnits="userSpaceOnUse">
<stop stop-color="#FA9734"/>
<stop offset="1" stop-color="#FFDB57"/>
</linearGradient>
<linearGradient id="paint38_linear_446_5703" x1="254.449" y1="388.013" x2="350.185" y2="224.212" gradientUnits="userSpaceOnUse">
<stop stop-color="#DB842E"/>
<stop offset="1" stop-color="#E0C14D"/>
</linearGradient>
<linearGradient id="paint39_linear_446_5703" x1="22695.7" y1="50306.5" x2="15435.9" y2="47007.4" gradientUnits="userSpaceOnUse">
<stop stop-color="#DB842E"/>
<stop offset="1" stop-color="#E0C14D"/>
</linearGradient>
<linearGradient id="paint40_linear_446_5703" x1="34084.5" y1="70604.5" x2="23411.5" y2="65393.6" gradientUnits="userSpaceOnUse">
<stop stop-color="#FA9734"/>
<stop offset="1" stop-color="#FFDB57"/>
</linearGradient>
<linearGradient id="paint41_linear_446_5703" x1="16479.8" y1="68693.3" x2="10711.8" y2="67315.8" gradientUnits="userSpaceOnUse">
<stop stop-color="#DB842E"/>
<stop offset="1" stop-color="#E0C14D"/>
</linearGradient>
<linearGradient id="paint42_linear_446_5703" x1="1726.69" y1="4250.88" x2="1217.89" y2="4033.59" gradientUnits="userSpaceOnUse">
<stop stop-color="#FA9734"/>
<stop offset="1" stop-color="#FFDB57"/>
</linearGradient>
<linearGradient id="paint43_linear_446_5703" x1="7280.94" y1="4727.71" x2="7379.41" y2="4727.71" gradientUnits="userSpaceOnUse">
<stop stop-color="#2F205F"/>
<stop offset="1" stop-color="#241170"/>
</linearGradient>
<linearGradient id="paint44_linear_446_5703" x1="21770.6" y1="5855.61" x2="22706.5" y2="5855.61" gradientUnits="userSpaceOnUse">
<stop stop-color="#2F205F"/>
<stop offset="1" stop-color="#241170"/>
</linearGradient>
<radialGradient id="paint45_radial_446_5703" cx="0" cy="0" r="1" gradientUnits="userSpaceOnUse" gradientTransform="translate(309.787 73.6226) rotate(180) scale(41.0917)">
<stop stop-color="#76F1F9"/>
<stop offset="0.3" stop-color="#52D1FB" stop-opacity="0.69"/>
<stop offset="1" stop-color="#008AFF" stop-opacity="0"/>
</radialGradient>
<linearGradient id="paint46_linear_446_5703" x1="1930.01" y1="1522.22" x2="1935.21" y2="1522.22" gradientUnits="userSpaceOnUse">
<stop stop-color="#2F205F"/>
<stop offset="1" stop-color="#241170"/>
</linearGradient>
<linearGradient id="paint47_linear_446_5703" x1="20202.2" y1="34425.3" x2="22211" y2="34425.3" gradientUnits="userSpaceOnUse">
<stop stop-color="#8096FF"/>
<stop offset="1" stop-color="#4C5FC2"/>
</linearGradient>
<radialGradient id="paint48_radial_446_5703" cx="0" cy="0" r="1" gradientUnits="userSpaceOnUse" gradientTransform="translate(87.0941 222.289) scale(165.853)">
<stop stop-color="white"/>
<stop offset="0.33" stop-color="#CBD5FF"/>
<stop offset="0.62" stop-color="#A2B4FF"/>
<stop offset="0.86" stop-color="#89A0FF"/>
<stop offset="1" stop-color="#8099FF"/>
</radialGradient>
<radialGradient id="paint49_radial_446_5703" cx="0" cy="0" r="1" gradientUnits="userSpaceOnUse" gradientTransform="translate(3339.11 810.545) scale(921.909 196.249)">
<stop stop-color="white"/>
<stop offset="0.33" stop-color="#CBD5FF"/>
<stop offset="0.62" stop-color="#A2B4FF"/>
<stop offset="0.86" stop-color="#89A0FF"/>
<stop offset="1" stop-color="#8099FF"/>
</radialGradient>
<radialGradient id="paint50_radial_446_5703" cx="0" cy="0" r="1" gradientUnits="userSpaceOnUse" gradientTransform="translate(1081.66 2307.69) scale(279.336 794.276)">
<stop stop-color="white"/>
<stop offset="0.33" stop-color="#CBD5FF"/>
<stop offset="0.62" stop-color="#A2B4FF"/>
<stop offset="0.86" stop-color="#89A0FF"/>
<stop offset="1" stop-color="#8099FF"/>
</radialGradient>
<radialGradient id="paint51_radial_446_5703" cx="0" cy="0" r="1" gradientUnits="userSpaceOnUse" gradientTransform="translate(4646.08 1138.46) scale(1292.13 323.063)">
<stop stop-color="white"/>
<stop offset="0.33" stop-color="#CBD5FF"/>
<stop offset="0.62" stop-color="#A2B4FF"/>
<stop offset="0.86" stop-color="#89A0FF"/>
<stop offset="1" stop-color="#8099FF"/>
</radialGradient>
<radialGradient id="paint52_radial_446_5703" cx="0" cy="0" r="1" gradientUnits="userSpaceOnUse" gradientTransform="translate(1310.2 3083.66) scale(341.02 1096.96)">
<stop stop-color="white"/>
<stop offset="0.33" stop-color="#CBD5FF"/>
<stop offset="0.62" stop-color="#A2B4FF"/>
<stop offset="0.86" stop-color="#89A0FF"/>
<stop offset="1" stop-color="#8099FF"/>
</radialGradient>
<radialGradient id="paint53_radial_446_5703" cx="0" cy="0" r="1" gradientUnits="userSpaceOnUse" gradientTransform="translate(4862.96 1178.97) scale(1350.58 328.943)">
<stop stop-color="white"/>
<stop offset="0.33" stop-color="#CBD5FF"/>
<stop offset="0.62" stop-color="#A2B4FF"/>
<stop offset="0.86" stop-color="#89A0FF"/>
<stop offset="1" stop-color="#8099FF"/>
</radialGradient>
<radialGradient id="paint54_radial_446_5703" cx="0" cy="0" r="1" gradientUnits="userSpaceOnUse" gradientTransform="translate(1311.66 3205.47) scale(339.569 1139.44)">
<stop stop-color="white"/>
<stop offset="0.33" stop-color="#CBD5FF"/>
<stop offset="0.62" stop-color="#A2B4FF"/>
<stop offset="0.86" stop-color="#89A0FF"/>
<stop offset="1" stop-color="#8099FF"/>
</radialGradient>
<linearGradient id="paint55_linear_446_5703" x1="3766.22" y1="49032.6" x2="5799.44" y2="49604.4" gradientUnits="userSpaceOnUse">
<stop stop-color="#8096FF"/>
<stop offset="1" stop-color="#4C5FC2"/>
</linearGradient>
<radialGradient id="paint56_radial_446_5703" cx="0" cy="0" r="1" gradientUnits="userSpaceOnUse" gradientTransform="translate(8609.76 32335.4) scale(2411.51 12737)">
<stop stop-color="white"/>
<stop offset="0.33" stop-color="#CBD5FF"/>
<stop offset="0.62" stop-color="#A2B4FF"/>
<stop offset="0.86" stop-color="#89A0FF"/>
<stop offset="1" stop-color="#8099FF"/>
</radialGradient>
<radialGradient id="paint57_radial_446_5703" cx="0" cy="0" r="1" gradientUnits="userSpaceOnUse" gradientTransform="translate(3972.35 1403.23) scale(1093.94 441.917)">
<stop stop-color="white"/>
<stop offset="0.33" stop-color="#CBD5FF"/>
<stop offset="0.62" stop-color="#A2B4FF"/>
<stop offset="0.86" stop-color="#89A0FF"/>
<stop offset="1" stop-color="#8099FF"/>
</radialGradient>
<radialGradient id="paint58_radial_446_5703" cx="0" cy="0" r="1" gradientUnits="userSpaceOnUse" gradientTransform="translate(1905.29 2543.25) scale(504.839 897.989)">
<stop stop-color="white"/>
<stop offset="0.33" stop-color="#CBD5FF"/>
<stop offset="0.62" stop-color="#A2B4FF"/>
<stop offset="0.86" stop-color="#89A0FF"/>
<stop offset="1" stop-color="#8099FF"/>
</radialGradient>
<radialGradient id="paint59_radial_446_5703" cx="0" cy="0" r="1" gradientUnits="userSpaceOnUse" gradientTransform="translate(5414.39 2128.92) scale(1503.19 725.467)">
<stop stop-color="white"/>
<stop offset="0.33" stop-color="#CBD5FF"/>
<stop offset="0.62" stop-color="#A2B4FF"/>
<stop offset="0.86" stop-color="#89A0FF"/>
<stop offset="1" stop-color="#8099FF"/>
</radialGradient>
<radialGradient id="paint60_radial_446_5703" cx="0" cy="0" r="1" gradientUnits="userSpaceOnUse" gradientTransform="translate(2490.8 3441.46) scale(668.784 1246.28)">
<stop stop-color="white"/>
<stop offset="0.33" stop-color="#CBD5FF"/>
<stop offset="0.62" stop-color="#A2B4FF"/>
<stop offset="0.86" stop-color="#89A0FF"/>
<stop offset="1" stop-color="#8099FF"/>
</radialGradient>
<radialGradient id="paint61_radial_446_5703" cx="0" cy="0" r="1" gradientUnits="userSpaceOnUse" gradientTransform="translate(5669.39 2235.94) scale(1574.28 753.882)">
<stop stop-color="white"/>
<stop offset="0.33" stop-color="#CBD5FF"/>
<stop offset="0.62" stop-color="#A2B4FF"/>
<stop offset="0.86" stop-color="#89A0FF"/>
<stop offset="1" stop-color="#8099FF"/>
</radialGradient>
<radialGradient id="paint62_radial_446_5703" cx="0" cy="0" r="1" gradientUnits="userSpaceOnUse" gradientTransform="translate(2581.27 3608.11) scale(693.697 1304.33)">
<stop stop-color="white"/>
<stop offset="0.33" stop-color="#CBD5FF"/>
<stop offset="0.62" stop-color="#A2B4FF"/>
<stop offset="0.86" stop-color="#89A0FF"/>
<stop offset="1" stop-color="#8099FF"/>
</radialGradient>
<linearGradient id="paint63_linear_446_5703" x1="-22604.1" y1="34425.3" x2="-24613.7" y2="34425.3" gradientUnits="userSpaceOnUse">
<stop stop-color="#8096FF"/>
<stop offset="1" stop-color="#4C5FC2"/>
</linearGradient>
<radialGradient id="paint64_radial_446_5703" cx="0" cy="0" r="1" gradientUnits="userSpaceOnUse" gradientTransform="translate(14507.9 23651.8) scale(4078.22 9275.15)">
<stop stop-color="white"/>
<stop offset="0.33" stop-color="#CBD5FF"/>
<stop offset="0.62" stop-color="#A2B4FF"/>
<stop offset="0.86" stop-color="#89A0FF"/>
<stop offset="1" stop-color="#8099FF"/>
</radialGradient>
<radialGradient id="paint65_radial_446_5703" cx="0" cy="0" r="1" gradientUnits="userSpaceOnUse" gradientTransform="translate(3416.41 818.861) scale(921.696 199.565)">
<stop stop-color="white"/>
<stop offset="0.33" stop-color="#CBD5FF"/>
<stop offset="0.62" stop-color="#A2B4FF"/>
<stop offset="0.86" stop-color="#89A0FF"/>
<stop offset="1" stop-color="#8099FF"/>
</radialGradient>
<radialGradient id="paint66_radial_446_5703" cx="0" cy="0" r="1" gradientUnits="userSpaceOnUse" gradientTransform="translate(1155.11 2303.53) scale(279.338 792.616)">
<stop stop-color="white"/>
<stop offset="0.33" stop-color="#CBD5FF"/>
<stop offset="0.62" stop-color="#A2B4FF"/>
<stop offset="0.86" stop-color="#89A0FF"/>
<stop offset="1" stop-color="#8099FF"/>
</radialGradient>
<radialGradient id="paint67_radial_446_5703" cx="0" cy="0" r="1" gradientUnits="userSpaceOnUse" gradientTransform="translate(4721.25 1137.78) scale(1294.15 322.792)">
<stop stop-color="white"/>
<stop offset="0.33" stop-color="#CBD5FF"/>
<stop offset="0.62" stop-color="#A2B4FF"/>
<stop offset="0.86" stop-color="#89A0FF"/>
<stop offset="1" stop-color="#8099FF"/>
</radialGradient>
<radialGradient id="paint68_radial_446_5703" cx="0" cy="0" r="1" gradientUnits="userSpaceOnUse" gradientTransform="translate(1345.58 3065.66) scale(336.782 1089.79)">
<stop stop-color="white"/>
<stop offset="0.33" stop-color="#CBD5FF"/>
<stop offset="0.62" stop-color="#A2B4FF"/>
<stop offset="0.86" stop-color="#89A0FF"/>
<stop offset="1" stop-color="#8099FF"/>
</radialGradient>
<radialGradient id="paint69_radial_446_5703" cx="0" cy="0" r="1" gradientUnits="userSpaceOnUse" gradientTransform="translate(4914.58 1182.4) scale(1352.33 330.311)">
<stop stop-color="white"/>
<stop offset="0.33" stop-color="#CBD5FF"/>
<stop offset="0.62" stop-color="#A2B4FF"/>
<stop offset="0.86" stop-color="#89A0FF"/>
<stop offset="1" stop-color="#8099FF"/>
</radialGradient>
<radialGradient id="paint70_radial_446_5703" cx="0" cy="0" r="1" gradientUnits="userSpaceOnUse" gradientTransform="translate(1346.83 3200.05) scale(339.016 1137.28)">
<stop stop-color="white"/>
<stop offset="0.33" stop-color="#CBD5FF"/>
<stop offset="0.62" stop-color="#A2B4FF"/>
<stop offset="0.86" stop-color="#89A0FF"/>
<stop offset="1" stop-color="#8099FF"/>
</radialGradient>
<linearGradient id="paint71_linear_446_5703" x1="24353.3" y1="24182.1" x2="26995.7" y2="24182.1" gradientUnits="userSpaceOnUse">
<stop stop-color="#FFE46E"/>
<stop offset="0.18" stop-color="#FFCD66"/>
<stop offset="0.74" stop-color="#FF8A4D"/>
<stop offset="1" stop-color="#FF7043"/>
</linearGradient>
<linearGradient id="paint72_linear_446_5703" x1="28009.3" y1="7552.5" x2="31570.6" y2="7552.5" gradientUnits="userSpaceOnUse">
<stop stop-color="#FFE46E"/>
<stop offset="0.18" stop-color="#FFCD66"/>
<stop offset="0.74" stop-color="#FF8A4D"/>
<stop offset="1" stop-color="#FF7043"/>
</linearGradient>
<linearGradient id="paint73_linear_446_5703" x1="20041" y1="22525.7" x2="22919.6" y2="26473.9" gradientUnits="userSpaceOnUse">
<stop stop-color="#FFE46E"/>
<stop offset="0.18" stop-color="#FFCD66"/>
<stop offset="0.74" stop-color="#FF8A4D"/>
<stop offset="1" stop-color="#FF7043"/>
</linearGradient>
<radialGradient id="paint74_radial_446_5703" cx="0" cy="0" r="1" gradientUnits="userSpaceOnUse" gradientTransform="translate(7748.22 2563.88) scale(78.0394)">
<stop stop-color="white"/>
<stop offset="0.15" stop-color="#EDF4FF"/>
<stop offset="0.52" stop-color="#C5DAFF"/>
<stop offset="0.82" stop-color="#ACCAFF"/>
<stop offset="1" stop-color="#A3C4FF"/>
</radialGradient>
<radialGradient id="paint75_radial_446_5703" cx="0" cy="0" r="1" gradientUnits="userSpaceOnUse" gradientTransform="translate(9734.81 971.966) scale(2254.74 2254.74)">
<stop stop-color="white"/>
<stop offset="0.15" stop-color="#EDF4FF"/>
<stop offset="0.52" stop-color="#C5DAFF"/>
<stop offset="0.82" stop-color="#ACCAFF"/>
<stop offset="1" stop-color="#A3C4FF"/>
</radialGradient>
<radialGradient id="paint76_radial_446_5703" cx="0" cy="0" r="1" gradientUnits="userSpaceOnUse" gradientTransform="translate(6576.14 2210.8) scale(78.0395)">
<stop stop-color="white"/>
<stop offset="0.15" stop-color="#EDF4FF"/>
<stop offset="0.52" stop-color="#C5DAFF"/>
<stop offset="0.82" stop-color="#ACCAFF"/>
<stop offset="1" stop-color="#A3C4FF"/>
</radialGradient>
<radialGradient id="paint77_radial_446_5703" cx="0" cy="0" r="1" gradientUnits="userSpaceOnUse" gradientTransform="translate(10049.2 5914.49) scale(197.047 197.047)">
<stop stop-color="white"/>
<stop offset="0.15" stop-color="#EDF4FF"/>
<stop offset="0.52" stop-color="#C5DAFF"/>
<stop offset="0.82" stop-color="#ACCAFF"/>
<stop offset="1" stop-color="#A3C4FF"/>
</radialGradient>
<radialGradient id="paint78_radial_446_5703" cx="0" cy="0" r="1" gradientUnits="userSpaceOnUse" gradientTransform="translate(4702.14 5389.28) scale(70.152 70.1518)">
<stop stop-color="white"/>
<stop offset="0.15" stop-color="#EDF4FF"/>
<stop offset="0.52" stop-color="#C5DAFF"/>
<stop offset="0.82" stop-color="#ACCAFF"/>
<stop offset="1" stop-color="#A3C4FF"/>
</radialGradient>
<radialGradient id="paint79_radial_446_5703" cx="0" cy="0" r="1" gradientUnits="userSpaceOnUse" gradientTransform="translate(14901 1531.21) scale(3586.45 3586.46)">
<stop stop-color="white"/>
<stop offset="0.15" stop-color="#EDF4FF"/>
<stop offset="0.52" stop-color="#C5DAFF"/>
<stop offset="0.82" stop-color="#ACCAFF"/>
<stop offset="1" stop-color="#A3C4FF"/>
</radialGradient>
</defs>
</svg>
