<svg width="23" height="17" viewBox="0 0 23 17" fill="none" xmlns="http://www.w3.org/2000/svg">
<path d="M20.875 0.6875H2.125C1.7106 0.6875 1.31317 0.85212 1.02015 1.14515C0.72712 1.43817 0.5625 1.8356 0.5625 2.25V14.75C0.5625 15.1644 0.72712 15.5618 1.02015 15.8549C1.31317 16.1479 1.7106 16.3125 2.125 16.3125H20.875C21.2894 16.3125 21.6868 16.1479 21.9799 15.8549C22.2729 15.5618 22.4375 15.1644 22.4375 14.75V2.25C22.4375 1.8356 22.2729 1.43817 21.9799 1.14515C21.6868 0.85212 21.2894 0.6875 20.875 0.6875ZM19.1562 2.25L11.5 7.54688L3.84375 2.25H19.1562ZM2.125 14.75V2.96094L11.0547 9.14062C11.1855 9.23135 11.3408 9.27997 11.5 9.27997C11.6592 9.27997 11.8145 9.23135 11.9453 9.14062L20.875 2.96094V14.75H2.125Z" fill="#F9BC1A"/>
</svg>
