<svg width="26" height="26" viewBox="0 0 26 26" fill="none" xmlns="http://www.w3.org/2000/svg">
<path fill-rule="evenodd" clip-rule="evenodd" d="M9.78625 9.21125H14.4287V11.5237C15.0975 10.1937 16.8125 8.99875 19.3888 8.99875C24.3275 8.99875 25.5 11.6462 25.5 16.5037V25.5H20.5V17.61C20.5 14.8437 19.8313 13.2837 18.1287 13.2837C15.7675 13.2837 14.7863 14.965 14.7863 17.6087V25.5H9.78625V9.21125ZM1.2125 25.2875H6.2125V8.99875H1.2125V25.2875ZM6.92875 3.6875C6.92894 4.10659 6.84582 4.52154 6.68423 4.90823C6.52265 5.29492 6.28581 5.64564 5.9875 5.94C5.383 6.54078 4.56476 6.87707 3.7125 6.875C2.86174 6.87443 2.04539 6.539 1.44 5.94125C1.14276 5.64589 0.906732 5.29478 0.74543 4.90804C0.584127 4.5213 0.500724 4.10653 0.5 3.6875C0.5 2.84125 0.8375 2.03125 1.44125 1.43375C2.04611 0.835198 2.8628 0.499626 3.71375 0.5C4.56625 0.5 5.38375 0.83625 5.9875 1.43375C6.59 2.03125 6.92875 2.84125 6.92875 3.6875Z" fill="#AAAAAA"/>
</svg>
