<svg width="49" height="50" viewBox="0 0 49 50" fill="none" xmlns="http://www.w3.org/2000/svg">
<ellipse cx="24.4" cy="25" rx="23.75" ry="25" fill="#F9BC1A"/>
<path d="M24.3999 20C23.1401 20 21.9319 20.5268 21.0411 21.4645C20.1503 22.4021 19.6499 23.6739 19.6499 25C19.6499 26.3261 20.1503 27.5979 21.0411 28.5355C21.9319 29.4732 23.1401 30 24.3999 30C25.6597 30 26.8679 29.4732 27.7587 28.5355C28.6495 27.5979 29.1499 26.3261 29.1499 25C29.1499 23.6739 28.6495 22.4021 27.7587 21.4645C26.8679 20.5268 25.6597 20 24.3999 20V20Z" fill="white"/>
<path fill-rule="evenodd" clip-rule="evenodd" d="M24.3999 14C24.6519 14 24.8935 14.1054 25.0717 14.2929C25.2499 14.4804 25.3499 14.7348 25.3499 15V16C25.3499 16.2652 25.2499 16.5196 25.0717 16.7071C24.8935 16.8946 24.6519 17 24.3999 17C24.148 17 23.9064 16.8946 23.7282 16.7071C23.55 16.5196 23.4499 16.2652 23.4499 16V15C23.4499 14.7348 23.55 14.4804 23.7282 14.2929C23.9064 14.1054 24.148 14 24.3999 14V14ZM16.1283 16.293C16.3065 16.1055 16.548 16.0002 16.8 16.0002C17.0519 16.0002 17.2934 16.1055 17.4716 16.293L18.8966 17.793C19.0697 17.9816 19.1654 18.2342 19.1632 18.4964C19.1611 18.7586 19.0612 19.0094 18.885 19.1948C18.7089 19.3802 18.4706 19.4854 18.2215 19.4877C17.9724 19.49 17.7325 19.3892 17.5533 19.207L16.1283 17.707C15.9502 17.5195 15.8502 17.2652 15.8502 17C15.8502 16.7348 15.9502 16.4805 16.1283 16.293V16.293ZM32.6716 16.293C32.8497 16.4805 32.9497 16.7348 32.9497 17C32.9497 17.2652 32.8497 17.5195 32.6716 17.707L31.2466 19.207C31.159 19.3025 31.0541 19.3787 30.9382 19.4311C30.8223 19.4835 30.6977 19.5111 30.5715 19.5123C30.4454 19.5134 30.3203 19.4881 30.2035 19.4378C30.0868 19.3875 29.9807 19.3133 29.8915 19.2194C29.8023 19.1255 29.7318 19.0139 29.684 18.891C29.6363 18.7681 29.6122 18.6364 29.6133 18.5036C29.6144 18.3708 29.6406 18.2396 29.6904 18.1176C29.7402 17.9956 29.8126 17.8852 29.9033 17.793L31.3283 16.293C31.5064 16.1055 31.748 16.0002 31.9999 16.0002C32.2519 16.0002 32.4934 16.1055 32.6716 16.293ZM13.95 25C13.95 24.7348 14.05 24.4804 14.2282 24.2929C14.4064 24.1054 14.648 24 14.9 24H15.85C16.1019 24 16.3435 24.1054 16.5217 24.2929C16.6999 24.4804 16.8 24.7348 16.8 25C16.8 25.2652 16.6999 25.5196 16.5217 25.7071C16.3435 25.8946 16.1019 26 15.85 26H14.9C14.648 26 14.4064 25.8946 14.2282 25.7071C14.05 25.5196 13.95 25.2652 13.95 25ZM31.9999 25C31.9999 24.7348 32.1 24.4804 32.2782 24.2929C32.4564 24.1054 32.698 24 32.9499 24H33.8999C34.1519 24 34.3935 24.1054 34.5717 24.2929C34.7499 24.4804 34.8499 24.7348 34.8499 25C34.8499 25.2652 34.7499 25.5196 34.5717 25.7071C34.3935 25.8946 34.1519 26 33.8999 26H32.9499C32.698 26 32.4564 25.8946 32.2782 25.7071C32.1 25.5196 31.9999 25.2652 31.9999 25ZM18.8966 30.793C19.0747 30.9805 19.1747 31.2348 19.1747 31.5C19.1747 31.7652 19.0747 32.0195 18.8966 32.207L17.4716 33.707C17.2924 33.8892 17.0525 33.99 16.8034 33.9877C16.5543 33.9854 16.316 33.8802 16.1399 33.6948C15.9637 33.5094 15.8638 33.2586 15.8617 32.9964C15.8595 32.7342 15.9553 32.4816 16.1283 32.293L17.5533 30.793C17.7315 30.6055 17.973 30.5002 18.225 30.5002C18.4769 30.5002 18.7184 30.6055 18.8966 30.793V30.793ZM29.9033 30.793C30.0814 30.6055 30.323 30.5002 30.5749 30.5002C30.8269 30.5002 31.0684 30.6055 31.2466 30.793L32.6716 32.293C32.8446 32.4816 32.9404 32.7342 32.9382 32.9964C32.9361 33.2586 32.8362 33.5094 32.66 33.6948C32.4839 33.8802 32.2456 33.9854 31.9965 33.9877C31.7474 33.99 31.5075 33.8892 31.3283 33.707L29.9033 32.207C29.7252 32.0195 29.6252 31.7652 29.6252 31.5C29.6252 31.2348 29.7252 30.9805 29.9033 30.793ZM24.3999 33C24.6519 33 24.8935 33.1054 25.0717 33.2929C25.2499 33.4804 25.3499 33.7348 25.3499 34V35C25.3499 35.2652 25.2499 35.5196 25.0717 35.7071C24.8935 35.8946 24.6519 36 24.3999 36C24.148 36 23.9064 35.8946 23.7282 35.7071C23.55 35.5196 23.4499 35.2652 23.4499 35V34C23.4499 33.7348 23.55 33.4804 23.7282 33.2929C23.9064 33.1054 24.148 33 24.3999 33V33Z" fill="white"/>
</svg>
