<svg width="500" height="195" viewBox="0 0 500 195" fill="none" xmlns="http://www.w3.org/2000/svg">
<path opacity="0.2" d="M0 0H500V145C500 172.614 477.614 195 450 195H50C22.3858 195 0 172.614 0 145V0Z" fill="#1A1A1A" fill-opacity="0.1"/>
<path d="M423.681 67.1902L392.946 48.7521C391.982 48.1785 390.968 47.742 389.897 47.4458C388.823 47.1496 387.734 47 386.626 47C385.516 47 384.427 47.1496 383.356 47.4458C382.285 47.742 381.267 48.1785 380.307 48.7521L349.572 67.1902C348.612 67.767 347.742 68.4653 346.959 69.279C346.173 70.0959 345.503 71 344.951 71.9977C344.396 72.9953 343.976 74.0522 343.688 75.1652C343.4 76.2751 343.253 77.41 343.253 78.5604V83.9291H395.013C395.43 83.9291 395.838 83.9914 396.237 84.1193C396.636 84.244 397.011 84.4279 397.357 84.6711C397.702 84.9143 398.008 85.2042 398.272 85.5409C398.533 85.8776 398.743 86.2486 398.899 86.6508C399.058 87.053 399.154 87.4677 399.19 87.901C399.226 88.3344 399.202 88.7615 399.115 89.1855C399.028 89.6095 398.884 90.0117 398.683 90.392C398.482 90.7724 398.23 91.1122 397.93 91.4147C397.534 91.8106 397.077 92.1161 396.567 92.3281C396.054 92.5401 395.523 92.6461 394.971 92.643H369.424C369.178 92.643 368.932 92.668 368.689 92.7178C368.446 92.7677 368.212 92.8426 367.984 92.9392C367.756 93.039 367.537 93.1574 367.333 93.3009C367.126 93.4443 366.937 93.6064 366.76 93.7872C366.585 93.968 366.429 94.1676 366.291 94.3796C366.156 94.5947 366.039 94.8192 365.943 95.0561C365.85 95.2931 365.778 95.5394 365.73 95.7888C365.682 96.0413 365.658 96.297 365.658 96.5526V114.872C365.658 115.128 365.682 115.383 365.73 115.636C365.778 115.889 365.85 116.132 365.943 116.369C366.039 116.606 366.156 116.833 366.291 117.045C366.429 117.26 366.585 117.457 366.76 117.638C366.937 117.822 367.126 117.984 367.333 118.124C367.537 118.267 367.753 118.389 367.984 118.486C368.212 118.585 368.446 118.66 368.689 118.71C368.932 118.76 369.178 118.785 369.424 118.785H395.013C396.72 118.8 398.359 118.458 399.925 117.756C401.434 117.092 402.767 116.154 403.925 114.947C405.08 113.744 405.977 112.356 406.613 110.785C407.282 109.167 407.61 107.477 407.604 105.712C407.601 104.116 407.33 102.57 406.793 101.076C406.253 99.5581 405.461 98.1988 404.417 96.9984C405.458 95.7981 406.247 94.4388 406.784 92.9236C407.321 91.4271 407.592 89.8807 407.595 88.2845C407.604 86.523 407.276 84.8332 406.613 83.212C405.977 81.6407 405.083 80.2502 403.925 79.0436C402.767 77.8371 401.434 76.8987 399.925 76.2315C398.359 75.53 396.72 75.1871 395.013 75.2026H352.282C352.627 74.8036 353.023 74.47 353.47 74.2019L384.217 55.7701C384.586 55.5487 384.973 55.3804 385.384 55.2681C385.795 55.1528 386.212 55.0966 386.638 55.0966C387.062 55.0966 387.479 55.1528 387.89 55.2681C388.301 55.3804 388.691 55.5487 389.057 55.7701L419.792 74.2081C420.161 74.4263 420.494 74.6945 420.794 75.0062C421.094 75.318 421.352 75.6641 421.562 76.0475C421.775 76.431 421.937 76.8332 422.048 77.2603C422.156 77.6843 422.213 78.1208 422.213 78.5604V115.436C422.213 115.879 422.156 116.313 422.048 116.737C421.937 117.164 421.775 117.569 421.562 117.949C421.352 118.333 421.094 118.679 420.794 118.991C420.494 119.302 420.161 119.571 419.792 119.792L389.045 138.23C388.679 138.448 388.289 138.617 387.878 138.729C387.467 138.844 387.05 138.9 386.626 138.9C386.2 138.9 385.783 138.844 385.372 138.729C384.961 138.617 384.574 138.448 384.205 138.23L353.47 119.792C353.104 119.571 352.771 119.302 352.471 118.991C352.174 118.679 351.919 118.33 351.706 117.949C351.496 117.566 351.337 117.164 351.225 116.737C351.117 116.313 351.06 115.879 351.06 115.436V92.643H343.253V115.436C343.253 116.59 343.4 117.722 343.688 118.835C343.976 119.945 344.396 121.002 344.951 121.999C345.503 122.997 346.173 123.904 346.959 124.718C347.742 125.532 348.612 126.23 349.572 126.807L380.307 145.245C381.267 145.818 382.285 146.255 383.356 146.554C384.427 146.85 385.516 147 386.626 147C387.734 147 388.826 146.85 389.897 146.554C390.968 146.255 391.982 145.818 392.946 145.245L423.681 126.807C424.638 126.23 425.511 125.532 426.294 124.718C427.077 123.904 427.746 122.997 428.302 121.999C428.854 121.002 429.277 119.945 429.565 118.835C429.853 117.722 429.997 116.59 430 115.436V78.5604C429.997 77.41 429.853 76.2751 429.565 75.1652C429.277 74.0522 428.854 72.9953 428.302 71.9977C427.746 71 427.077 70.0959 426.294 69.279C425.511 68.4653 424.638 67.767 423.681 67.1902ZM397.978 108.793C397.591 109.21 397.137 109.528 396.621 109.75C396.108 109.971 395.571 110.08 395.013 110.071H374.045V101.354H395.013C395.427 101.357 395.832 101.419 396.231 101.544C396.627 101.669 396.996 101.853 397.342 102.09C397.687 102.33 397.99 102.617 398.254 102.95C398.515 103.284 398.728 103.648 398.884 104.048C399.043 104.443 399.145 104.858 399.184 105.285C399.226 105.716 399.205 106.14 399.124 106.564C399.043 106.984 398.905 107.387 398.71 107.767C398.515 108.147 398.272 108.49 397.978 108.793Z" fill="#F9BC1A"/>
<path d="M122.622 111C121.459 111 120.353 110.806 119.306 110.418C118.259 110.03 117.289 109.507 116.397 108.847C115.389 109.507 114.283 110.03 113.081 110.418C111.878 110.806 110.637 111 109.357 111H94.1716C92.4261 111 90.7776 110.67 89.2261 110.011C87.6746 109.313 86.317 108.401 85.1534 107.276C84.0286 106.113 83.117 104.755 82.4189 103.204C81.7595 101.652 81.4298 100.004 81.4298 98.2582V89.8218H91.2625V98.2582C91.2625 99.0339 91.534 99.6933 92.077 100.236C92.6589 100.741 93.357 100.993 94.1716 100.993H109.357C110.133 100.993 110.792 100.741 111.335 100.236C111.917 99.6933 112.208 99.0339 112.208 98.2582V89.8218H121.982V100.585C121.982 100.896 122.196 101.051 122.622 101.051H124.95C125.57 101.051 125.997 101.516 126.23 102.447C126.501 103.339 126.637 104.522 126.637 105.996C126.637 107.509 126.521 108.731 126.288 109.662C126.094 110.554 125.648 111 124.95 111H122.622ZM93.7643 89.88V82.4909H109.997V89.88H93.7643ZM135.855 74.5782H143.186V81.9091H135.855V74.5782ZM141.208 101.051C141.596 101.051 142.003 100.896 142.43 100.585C142.895 100.236 143.341 99.8485 143.768 99.4218C144.233 98.9952 144.641 98.5491 144.99 98.0836C145.339 97.6182 145.61 97.2691 145.804 97.0364C145.145 96.8424 144.466 96.6291 143.768 96.3964C143.109 96.1636 142.469 95.9503 141.848 95.7564C141.227 95.5624 140.646 95.4073 140.102 95.2909C139.559 95.1358 139.094 95.0388 138.706 95H138.532C138.105 95 137.639 95.1358 137.135 95.4073C136.631 95.6788 136.146 96.0085 135.681 96.3964C135.215 96.7842 134.789 97.1721 134.401 97.56C134.013 97.9091 133.702 98.2 133.47 98.4327L127.128 94.4182C128.214 92.7891 129.203 91.4121 130.095 90.2873C130.987 89.1236 131.879 88.1927 132.772 87.4945C133.702 86.7576 134.653 86.2339 135.622 85.9236C136.631 85.5745 137.775 85.4 139.055 85.4C139.753 85.4 140.742 85.6133 142.022 86.04C143.341 86.4667 144.738 86.9515 146.212 87.4945C147.686 88.0376 149.179 88.5806 150.692 89.1236C152.204 89.6667 153.523 90.0545 154.648 90.2873C154.726 90.2873 154.939 90.3067 155.288 90.3455C155.637 90.3455 156.025 90.3648 156.452 90.4036C156.917 90.4036 157.324 90.423 157.673 90.4618C158.061 90.4618 158.313 90.4618 158.43 90.4618H161.63V98.6073H156.684C156.219 98.6073 155.87 98.7624 155.637 99.0727C155.521 99.2279 155.424 99.383 155.346 99.5382C154.609 100.741 153.814 102.021 152.961 103.378C152.146 104.697 151.196 105.938 150.11 107.102C149.024 108.227 147.763 109.158 146.328 109.895C144.893 110.632 143.186 111 141.208 111H124.917C124.219 111 123.773 110.554 123.579 109.662C123.346 108.731 123.23 107.509 123.23 105.996C123.23 104.522 123.366 103.339 123.637 102.447C123.87 101.516 124.296 101.051 124.917 101.051H141.208ZM163.93 111V79H173.879V111H163.93ZM196.063 92.7309C196.877 93.3515 197.498 94.0691 197.925 94.8836C198.351 95.6982 198.662 96.4933 198.856 97.2691C199.088 98.0448 199.205 98.743 199.205 99.3636C199.244 99.9842 199.263 100.411 199.263 100.644C199.263 101.962 198.991 103.262 198.448 104.542C197.944 105.783 197.227 106.888 196.296 107.858C195.365 108.789 194.259 109.545 192.979 110.127C191.738 110.709 190.4 111 188.965 111H176.514V101.109H189.314C189.508 101.07 189.624 100.973 189.663 100.818C189.741 100.624 189.682 100.45 189.488 100.295L178.376 92.5564L183.728 84.4109L196.063 92.7309ZM214.602 111C214.098 114.53 212.837 117.381 210.82 119.553C208.803 121.725 206.127 123.315 202.791 124.324L199.475 125.371L196.915 116.411L199.708 115.305C201.065 114.762 202.248 114.064 203.257 113.211C204.265 112.396 204.77 111.175 204.77 109.545V93.72H214.777V100.236C214.777 100.779 214.99 101.051 215.417 101.051H217.744C218.365 101.051 218.791 101.516 219.024 102.447C219.296 103.339 219.431 104.522 219.431 105.996C219.431 107.509 219.315 108.731 219.082 109.662C218.888 110.554 218.442 111 217.744 111H214.602ZM225.871 101.051C226.297 101.051 226.511 100.779 226.511 100.236V89.9964H236.46V100.411C236.46 101.846 236.169 103.223 235.587 104.542C235.044 105.822 234.288 106.947 233.318 107.916C232.387 108.847 231.282 109.604 230.002 110.185C228.722 110.728 227.345 111 225.871 111H217.725C217.027 111 216.581 110.554 216.387 109.662C216.154 108.731 216.038 107.509 216.038 105.996C216.038 104.522 216.174 103.339 216.445 102.447C216.678 101.516 217.105 101.051 217.725 101.051H225.871ZM234.016 116.178V123.509H229.711V129.618H222.38V123.509H217.783V116.178H234.016Z" fill="#1A1A1A"/>
<path d="M262.477 111C261.973 114.53 260.712 117.381 258.695 119.553C256.678 121.725 254.002 123.315 250.666 124.324L247.35 125.371L244.79 116.411L247.583 115.305C248.94 114.762 250.123 114.064 251.132 113.211C252.14 112.396 252.645 111.175 252.645 109.545V93.72H262.652V100.236C262.652 100.779 262.865 101.051 263.292 101.051H265.619C266.24 101.051 266.666 101.516 266.899 102.447C267.171 103.339 267.306 104.522 267.306 105.996C267.306 107.509 267.19 108.731 266.957 109.662C266.763 110.554 266.317 111 265.619 111H262.477ZM268.509 101.051C268.936 101.051 269.149 100.779 269.149 100.236V89.9964H279.098V100.411C279.098 101.846 278.807 103.223 278.226 104.542C277.683 105.822 276.926 106.947 275.957 107.916C275.026 108.847 273.92 109.604 272.64 110.185C271.36 110.728 269.983 111 268.509 111H265.6C264.902 111 264.456 110.554 264.262 109.662C264.029 108.731 263.913 107.509 263.913 105.996C263.913 104.522 264.049 103.339 264.32 102.447C264.553 101.516 264.98 101.051 265.6 101.051H268.509ZM265.309 86.0982V78.7091H280.378V86.0982H265.309ZM295.727 111C295.223 114.53 293.962 117.381 291.945 119.553C289.928 121.725 287.252 123.315 283.916 124.324L280.6 125.371L278.04 116.411L280.833 115.305C282.19 114.762 283.373 114.064 284.382 113.211C285.39 112.396 285.895 111.175 285.895 109.545V93.72H295.902V100.236C295.902 100.779 296.115 101.051 296.542 101.051H298.869C299.49 101.051 299.916 101.516 300.149 102.447C300.421 103.339 300.556 104.522 300.556 105.996C300.556 107.509 300.44 108.731 300.207 109.662C300.013 110.554 299.567 111 298.869 111H295.727ZM301.177 101.051C301.604 101.051 301.817 100.779 301.817 100.236V89.9964H311.767V100.411C311.767 101.846 311.476 103.223 310.894 104.542C310.351 105.822 309.594 106.947 308.625 107.916C307.694 108.847 306.588 109.604 305.308 110.185C304.028 110.728 302.651 111 301.177 111H298.85C298.152 111 297.706 110.554 297.512 109.662C297.279 108.731 297.163 107.509 297.163 105.996C297.163 104.522 297.299 103.339 297.57 102.447C297.803 101.516 298.23 101.051 298.85 101.051H301.177ZM300.247 116.12H307.577V123.451H300.247V116.12Z" fill="#F9BC1A"/>
</svg>
