<svg width="50" height="50" viewBox="0 0 50 50" fill="none" xmlns="http://www.w3.org/2000/svg">
<path d="M22.5 1.44338C24.047 0.550212 25.953 0.550212 27.5 1.44338L44.1506 11.0566C45.6976 11.9498 46.6506 13.6004 46.6506 15.3868V34.6132C46.6506 36.3996 45.6976 38.0502 44.1506 38.9434L27.5 48.5566C25.953 49.4498 24.047 49.4498 22.5 48.5566L5.84937 38.9434C4.30236 38.0502 3.34937 36.3996 3.34937 34.6132V15.3868C3.34937 13.6004 4.30236 11.9498 5.84936 11.0566L22.5 1.44338Z" fill="url(#paint0_linear_793_844)"/>
<path d="M22.5 6.44338C24.047 5.55021 25.953 5.55021 27.5 6.44338L39.8205 13.5566C41.3675 14.4498 42.3205 16.1004 42.3205 17.8868V32.1132C42.3205 33.8996 41.3675 35.5502 39.8205 36.4434L27.5 43.5566C25.953 44.4498 24.047 44.4498 22.5 43.5566L10.1795 36.4434C8.63249 35.5502 7.67949 33.8996 7.67949 32.1132V17.8868C7.67949 16.1004 8.63249 14.4498 10.1795 13.5566L22.5 6.44338Z" fill="#434165"/>
<path d="M23.146 31.2532C23.7288 33.408 25.8197 35.0532 26.8749 34.9851C26.9121 34.9831 30.8793 34.2435 33.0507 30.6137C34.7413 27.7905 34.1657 25.0643 31.8665 25.0044C31.0402 25.0663 22.0361 27.1458 23.146 31.2532ZM31.6529 17.4075L31.6509 17.4055L31.654 17.4034C29.8313 15.8479 27.5114 14.9949 25.1152 15C23.6566 15 22.2723 15.3126 21.0211 15.8696C20.7962 15.9645 20.5827 16.0686 20.3826 16.1831C20.2402 16.2595 20.0989 16.3337 19.9617 16.4163L19.9957 16.4266C19.5893 16.703 19.2293 17.0434 18.9312 17.4343C16.0347 21.2601 25.7413 24.04 30.9309 24.0503C33.3158 25.7616 33.9873 19.2229 31.6529 17.4075Z" fill="#5493F7"/>
<path d="M21.6046 17.4847C20.2719 19.4889 15.8301 20.901 15.0998 20.6803L15.0957 20.671C15.1256 20.6101 15.1566 20.5503 15.1865 20.4905C15.6899 19.5188 16.3397 18.6307 17.1144 17.8581C17.7405 17.232 18.442 16.6863 19.2022 16.2325C19.8242 15.8725 20.4606 15.8488 20.67 15.8416C22.6495 15.8818 21.6159 17.4692 21.6046 17.4847Z" fill="white"/>
<mask id="mask0_793_844" style="mask-type:alpha" maskUnits="userSpaceOnUse" x="14" y="21" width="7" height="14">
<path d="M14 21.699H20.5501V34.9763H14V21.699V21.699Z" fill="white"/>
</mask>
<g mask="url(#mask0_793_844)">
<path d="M20.5121 31.6474C20.607 32.2776 20.51 34.7646 20.38 34.974C20.2696 34.9812 20.0386 34.9956 19.3691 34.6202C18.5439 34.1498 17.7857 33.5701 17.1142 32.8986C16.3406 32.125 15.6897 31.2369 15.1863 30.2662C14.4034 28.7561 13.9959 27.08 13.999 25.379C13.999 24.7921 14.0465 24.2155 14.1383 23.6544C14.2466 22.988 14.4199 22.333 14.653 21.6997C15.4205 22.7188 16.3076 23.642 17.0616 24.6714C17.7796 25.6524 18.7678 27.2502 18.9679 27.5926C20.2181 29.7103 20.4172 31.0192 20.5121 31.6474Z" fill="white"/>
</g>
<path d="M35.2672 25.378C35.2672 26.7571 35.0042 28.0743 34.5266 29.2832C33.2743 30.6303 24.8303 27.3161 24.7468 27.28C23.5925 26.7736 20.076 25.2346 19.7594 22.8147C19.3034 19.3345 26.3642 16.9094 29.467 16.8176C29.8394 16.8218 30.9709 16.8352 31.6321 17.3715C33.9448 19.3891 35.2703 22.3093 35.2672 25.378ZM29.5505 34.8099C28.6294 35.239 27.6164 34.9265 27.8795 34.0301C28.3849 32.3085 32.7988 30.5437 33.7746 30.4477C33.8953 30.4364 33.9458 30.5179 33.8922 30.6117C32.8762 32.3972 31.3701 33.8547 29.5505 34.8099Z" fill="white"/>
<defs>
<linearGradient id="paint0_linear_793_844" x1="51.1849" y1="1.56099" x2="-7.25909" y2="6.04223" gradientUnits="userSpaceOnUse">
<stop stop-color="#3F3D56"/>
<stop offset="1" stop-color="#20294C"/>
<stop offset="1" stop-color="#243B55"/>
</linearGradient>
</defs>
</svg>
