<svg width="25" height="25" viewBox="0 0 25 25" fill="none" xmlns="http://www.w3.org/2000/svg">
<path d="M18.2106 25C18.5426 25.0019 18.8716 24.9377 19.1784 24.811C19.4853 24.6844 19.7639 24.498 19.9979 24.2625L23.3851 20.8754C23.6178 20.6412 23.7485 20.3244 23.7485 19.9942C23.7485 19.664 23.6178 19.3473 23.3851 19.1131L18.3856 14.1136C18.1514 13.8808 17.8346 13.7502 17.5044 13.7502C17.1742 13.7502 16.8575 13.8808 16.6233 14.1136L14.6235 16.1009C13.2389 15.7318 11.9567 15.0521 10.8739 14.1136C9.93789 13.0291 9.2586 11.7474 8.8866 10.364L10.8739 8.36423C11.1067 8.13005 11.2373 7.81327 11.2373 7.48307C11.2373 7.15287 11.1067 6.83609 10.8739 6.60192L5.87442 1.60245C5.64024 1.36966 5.32346 1.239 4.99326 1.239C4.66306 1.239 4.34628 1.36966 4.1121 1.60245L0.737463 5.00209C0.502028 5.23611 0.315565 5.51469 0.188955 5.82156C0.0623446 6.12843 -0.00187574 6.45744 4.1704e-05 6.7894C0.113433 11.5918 2.03242 16.175 5.37447 19.6255C8.825 22.9676 13.4083 24.8866 18.2106 25ZM4.99951 4.26466L8.23667 7.50182L6.62434 9.11415C6.47163 9.25719 6.35728 9.43629 6.29176 9.635C6.22625 9.83372 6.21168 10.0457 6.24938 10.2515C6.71654 12.3393 7.70561 14.2744 9.12407 15.8759C10.7243 17.2962 12.66 18.2855 14.7485 18.7506C14.9512 18.793 15.1612 18.7843 15.3598 18.7254C15.5583 18.6665 15.7391 18.5592 15.8859 18.4132L17.4982 16.7633L20.7353 20.0005L18.2356 22.5002C14.0907 22.3935 10.1358 20.7393 7.14928 17.8632C4.26573 14.8754 2.60678 10.9153 2.49978 6.7644L4.99951 4.26466ZM22.4977 11.2514H24.9974C25.0298 9.76533 24.761 8.28806 24.2071 6.90864C23.6533 5.52922 22.8259 4.27622 21.7749 3.22514C20.7238 2.17407 19.4708 1.34668 18.0914 0.79285C16.7119 0.239018 15.2347 -0.0297927 13.7486 0.00261801V2.50235C14.9083 2.46223 16.064 2.6611 17.1436 3.08658C18.2232 3.51207 19.2038 4.15508 20.0244 4.97564C20.8449 5.7962 21.4879 6.77678 21.9134 7.85641C22.3389 8.93605 22.5378 10.0917 22.4977 11.2514Z" fill="#F9BC1A"/>
</svg>
