<svg width="17" height="21" viewBox="0 0 17 21" fill="none" xmlns="http://www.w3.org/2000/svg">
<path d="M8.50002 0.0833282C5.62814 0.0833282 3.29169 2.41979 3.29169 5.29166V7.375H2.25002C1.10106 7.375 0.166687 8.30937 0.166687 9.45833V18.8333C0.166687 19.9823 1.10106 20.9167 2.25002 20.9167H14.75C15.899 20.9167 16.8334 19.9823 16.8334 18.8333V9.45833C16.8334 8.30937 15.899 7.375 14.75 7.375H13.7084V5.29166C13.7084 2.41979 11.3719 0.0833282 8.50002 0.0833282ZM5.37502 5.29166C5.37502 3.56875 6.7771 2.16666 8.50002 2.16666C10.2229 2.16666 11.625 3.56875 11.625 5.29166V7.375H5.37502V5.29166ZM14.7521 18.8333H9.54169V16.4604C10.1615 16.099 10.5834 15.4344 10.5834 14.6667C10.5834 13.5177 9.64898 12.5833 8.50002 12.5833C7.35106 12.5833 6.41669 13.5177 6.41669 14.6667C6.41669 15.4333 6.83856 16.099 7.45835 16.4604V18.8333H2.25002V9.45833H14.75L14.7521 18.8333Z" fill="#F9BC1A"/>
</svg>
