<svg width="114" height="141" viewBox="0 0 114 141" fill="none" xmlns="http://www.w3.org/2000/svg">
<path d="M105.697 28.324L65.3119 2.45802C64.0463 1.65326 62.7137 1.04094 61.3061 0.625438C59.8947 0.209937 58.4635 0 57.0086 0C55.5498 0 54.1187 0.209937 52.7111 0.625438C51.3036 1.04094 49.967 1.65326 48.7054 2.45802L8.3206 28.324C7.05894 29.1332 5.91557 30.1129 4.88653 31.2544C3.85355 32.4003 2.97434 33.6687 2.24889 35.0683C1.51949 36.4679 0.967517 37.9505 0.589021 39.512C0.210525 41.069 0.017334 42.661 0.017334 44.2749V51.8064H68.0284C68.5764 51.8064 69.1126 51.8939 69.637 52.0732C70.1614 52.2482 70.6542 52.5062 71.1076 52.8473C71.561 53.1885 71.9632 53.5953 72.3101 54.0676C72.6531 54.54 72.9291 55.0604 73.1341 55.6246C73.3431 56.1889 73.4693 56.7706 73.5166 57.3785C73.5639 57.9864 73.5324 58.5856 73.418 59.1805C73.3037 59.7753 73.1144 60.3395 72.8503 60.8731C72.5861 61.4067 72.2549 61.8834 71.8607 62.3077C71.3402 62.8631 70.741 63.2917 70.0707 63.5891C69.3965 63.8866 68.6986 64.0353 67.9732 64.0309H34.4053C34.082 64.0309 33.7587 64.0659 33.4394 64.1359C33.12 64.2058 32.8125 64.3108 32.5128 64.4464C32.2132 64.5863 31.9254 64.7525 31.6573 64.9537C31.3852 65.1549 31.1368 65.3824 30.9042 65.636C30.6755 65.8897 30.4705 66.1696 30.2892 66.467C30.1117 66.7688 29.958 67.0837 29.8318 67.4161C29.7096 67.7485 29.615 68.094 29.5519 68.4439C29.4888 68.7982 29.4573 69.1569 29.4573 69.5155V95.2153C29.4573 95.574 29.4888 95.9326 29.5519 96.2869C29.615 96.6412 29.7096 96.9823 29.8318 97.3147C29.958 97.6471 30.1117 97.9664 30.2892 98.2638C30.4705 98.5656 30.6755 98.8411 30.9042 99.0948C31.1368 99.3528 31.3852 99.5803 31.6573 99.7771C31.9254 99.9783 32.2092 100.149 32.5128 100.284C32.8125 100.424 33.12 100.529 33.4394 100.599C33.7587 100.669 34.082 100.704 34.4053 100.704H68.0284C70.2718 100.726 72.4245 100.245 74.4825 99.261C76.4657 98.3294 78.2163 97.0129 79.7381 95.3203C81.2561 93.632 82.4349 91.6858 83.2708 89.4814C84.15 87.2115 84.5797 84.8409 84.5718 82.3654C84.5679 80.1261 84.2131 77.9567 83.5073 75.8617C82.7976 73.7317 81.7568 71.8248 80.3847 70.1409C81.7528 68.4571 82.7897 66.5501 83.4955 64.4245C84.2012 62.3251 84.5561 60.1558 84.56 57.9165C84.5718 55.4453 84.1421 53.0748 83.2708 50.8005C82.4349 48.5961 81.26 46.6455 79.7381 44.9528C78.2163 43.2602 76.4657 41.9437 74.4825 41.0078C72.4245 40.0237 70.2718 39.5426 68.0284 39.5644H11.8808C12.3342 39.0046 12.8547 38.5366 13.4421 38.1605L53.8427 12.3032C54.3276 11.9927 54.8362 11.7565 55.3764 11.599C55.9165 11.4372 56.4645 11.3585 57.0244 11.3585C57.5803 11.3585 58.1283 11.4372 58.6685 11.599C59.2086 11.7565 59.7212 11.9927 60.2022 12.3032L100.587 38.1692C101.072 38.4754 101.51 38.8515 101.904 39.2889C102.298 39.7263 102.637 40.2117 102.913 40.7497C103.193 41.2877 103.406 41.8519 103.552 42.4511C103.694 43.0459 103.769 43.6582 103.769 44.2749V96.007C103.769 96.628 103.694 97.236 103.552 97.8308C103.406 98.43 103.193 98.9986 102.913 99.5322C102.637 100.07 102.298 100.556 101.904 100.993C101.51 101.43 101.072 101.806 100.587 102.117L60.1864 127.983C59.7054 128.289 59.1929 128.525 58.6527 128.683C58.1126 128.845 57.5645 128.923 57.0086 128.923C56.4488 128.923 55.9007 128.845 55.3606 128.683C54.8204 128.525 54.3118 128.289 53.8269 127.983L13.4421 102.117C12.9611 101.806 12.5235 101.43 12.1292 100.993C11.7389 100.556 11.4038 100.066 11.1238 99.5322C10.8478 98.9942 10.6389 98.43 10.493 97.8308C10.3511 97.236 10.2762 96.628 10.2762 96.007V64.0309H0.017334V96.007C0.017334 97.6252 0.210525 99.2129 0.589021 100.774C0.967517 102.331 1.51949 103.814 2.24889 105.214C2.97434 106.613 3.85355 107.886 4.88653 109.027C5.91557 110.169 7.05894 111.149 8.3206 111.958L48.7054 137.824C49.967 138.629 51.3036 139.241 52.7111 139.661C54.1187 140.076 55.5498 140.286 57.0086 140.286C58.4635 140.286 59.8986 140.076 61.3061 139.661C62.7137 139.241 64.0463 138.629 65.3119 137.824L105.697 111.958C106.954 111.149 108.102 110.169 109.131 109.027C110.16 107.886 111.039 106.613 111.768 105.214C112.494 103.814 113.05 102.331 113.428 100.774C113.807 99.2129 113.996 97.6252 114 96.007V44.2749C113.996 42.661 113.807 41.069 113.428 39.512C113.05 37.9505 112.494 36.4679 111.768 35.0683C111.039 33.6687 110.16 32.4003 109.131 31.2544C108.102 30.1129 106.954 29.1332 105.697 28.324ZM71.9238 86.6866C71.4152 87.2727 70.8198 87.7188 70.1417 88.0294C69.4675 88.3399 68.7617 88.493 68.0284 88.4798H40.477V76.251H68.0284C68.5725 76.2554 69.1047 76.3428 69.6291 76.5178C70.1496 76.6927 70.6345 76.9508 71.0879 77.2832C71.5413 77.6199 71.9395 78.0223 72.2865 78.4903C72.6295 78.9583 72.9094 79.47 73.1144 80.0299C73.3234 80.5853 73.4575 81.167 73.5087 81.7662C73.5639 82.3698 73.5363 82.9646 73.4298 83.5594C73.3234 84.1499 73.142 84.7141 72.8858 85.2477C72.6295 85.7813 72.3101 86.2624 71.9238 86.6866Z" fill="url(#paint0_linear_247_28)"/>
<defs>
<linearGradient id="paint0_linear_247_28" x1="84.8107" y1="16.2162" x2="21.5675" y2="125.946" gradientUnits="userSpaceOnUse">
<stop stop-color="#F9BC1A"/>
<stop offset="0.503125" stop-color="#FFCA3E"/>
<stop offset="1" stop-color="#EDB113"/>
</linearGradient>
</defs>
</svg>
