<svg width="1920" height="150" viewBox="0 0 1920 150" fill="none" xmlns="http://www.w3.org/2000/svg">
<path d="M1920 150H0V0.132775C0.19839 2.63213 1.92692 5.04243 4.956 7.04351C8.2 9.33437 13.092 11.6361 19.5 13.8849C32.113 18.3086 50.933 22.6604 75.438 26.8181C99.5 30.8989 129.281 34.8386 163.954 38.5221C198.296 42.1704 237.736 45.6013 281.179 48.719C324.622 51.8367 372.426 54.6676 423.256 57.1324C474.577 59.6209 529.442 61.7582 586.326 63.4848C644.253 65.243 704.882 66.5941 766.526 67.4977C829.775 68.4281 894.868 68.8983 960 68.8983C1025.13 68.8983 1090.22 68.4272 1153.47 67.4987C1215.12 66.5931 1275.75 65.2425 1333.67 63.4857C1390.56 61.7592 1445.42 59.6214 1496.74 57.1333C1547.57 54.6686 1595.38 51.8382 1638.82 48.72C1682.26 45.6017 1721.7 42.1714 1756.04 38.5231C1790.72 34.8395 1820.5 30.9019 1844.56 26.8195C1869.06 22.6614 1887.88 18.3101 1900.49 13.8864C1906.91 11.6371 1911.8 9.33537 1915.04 7.045C1918.33 4.72094 1920 2.35031 1920 0V150H1920Z" fill="url(#paint0_linear_247_20)"/>
<defs>
<linearGradient id="paint0_linear_247_20" x1="1920" y1="20.9998" x2="11.9999" y2="135.5" gradientUnits="userSpaceOnUse">
<stop stop-color="#F9BC1A"/>
<stop offset="1" stop-color="#F9BC1A"/>
</linearGradient>
</defs>
</svg>
