<svg width="29" height="28" viewBox="0 0 29 28" fill="none" xmlns="http://www.w3.org/2000/svg">
<path fill-rule="evenodd" clip-rule="evenodd" d="M8.67542 0.3325C10.144 0.265 10.6122 0.25 14.353 0.25C18.0939 0.25 18.5621 0.26625 20.0294 0.3325C21.4967 0.39875 22.4982 0.6325 23.3746 0.97125C24.2923 1.3175 25.1248 1.85875 25.8134 2.55875C26.5145 3.245 27.0553 4.075 27.4009 4.9925C27.7414 5.8675 27.9743 6.8675 28.0419 8.33C28.1095 9.79875 28.1245 10.2662 28.1245 14C28.1245 17.735 28.1082 18.2025 28.0419 19.6688C27.9755 21.1313 27.7414 22.1313 27.4009 23.0063C27.0553 23.9239 26.5136 24.7552 25.8134 25.4425C25.1248 26.1425 24.2923 26.6825 23.3746 27.0275C22.4982 27.3675 21.4967 27.6 20.0319 27.6675C18.5621 27.735 18.0939 27.75 14.353 27.75C10.6122 27.75 10.144 27.7337 8.67542 27.6675C7.21064 27.6012 6.20907 27.3675 5.33271 27.0275C4.41367 26.6825 3.581 26.1416 2.89265 25.4425C2.19203 24.7558 1.64985 23.9249 1.30392 23.0075C0.964641 22.1325 0.731777 21.1325 0.664172 19.67C0.596566 18.2013 0.581543 17.7337 0.581543 14C0.581543 10.265 0.597818 9.7975 0.664172 8.3325C0.730525 6.8675 0.964641 5.8675 1.30392 4.9925C1.65036 4.0751 2.19296 3.24414 2.8939 2.5575C3.58127 1.85813 4.41311 1.3168 5.33145 0.97125C6.20782 0.6325 7.20938 0.4 8.67417 0.3325H8.67542ZM19.918 2.8075C18.4657 2.74125 18.03 2.7275 14.353 2.7275C10.676 2.7275 10.2404 2.74125 8.7881 2.8075C7.44475 2.86875 6.71611 3.0925 6.23036 3.28125C5.5881 3.53125 5.12864 3.8275 4.64664 4.30875C4.18973 4.75256 3.8381 5.29285 3.61753 5.89C3.42848 6.375 3.20438 7.1025 3.14304 8.44375C3.07669 9.89375 3.06291 10.3287 3.06291 14C3.06291 17.6712 3.07669 18.1062 3.14304 19.5562C3.20438 20.8975 3.42848 21.625 3.61753 22.11C3.83787 22.7063 4.18967 23.2475 4.64664 23.6912C5.09108 24.1475 5.63317 24.4988 6.23036 24.7188C6.71611 24.9075 7.44475 25.1313 8.7881 25.1925C10.2404 25.2588 10.6748 25.2725 14.353 25.2725C18.0313 25.2725 18.4657 25.2588 19.918 25.1925C21.2613 25.1313 21.9899 24.9075 22.4757 24.7188C23.118 24.4688 23.5774 24.1725 24.0594 23.6912C24.5164 23.2475 24.8682 22.7063 25.0885 22.11C25.2776 21.625 25.5017 20.8975 25.563 19.5562C25.6294 18.1062 25.6431 17.6712 25.6431 14C25.6431 10.3287 25.6294 9.89375 25.563 8.44375C25.5017 7.1025 25.2776 6.375 25.0885 5.89C24.8381 5.24875 24.5414 4.79 24.0594 4.30875C23.6149 3.85259 23.0738 3.50151 22.4757 3.28125C21.9899 3.0925 21.2613 2.86875 19.918 2.8075ZM12.594 18.2388C13.5764 18.647 14.6702 18.7021 15.6888 18.3947C16.7073 18.0872 17.5873 17.4361 18.1785 16.5528C18.7697 15.6695 19.0354 14.6086 18.9302 13.5514C18.8251 12.4942 18.3555 11.5062 17.6018 10.7562C17.1214 10.2768 16.5405 9.90977 15.9009 9.68143C15.2613 9.4531 14.5789 9.3692 13.9029 9.43577C13.227 9.50234 12.5742 9.71772 11.9916 10.0664C11.409 10.4151 10.9111 10.8884 10.5337 11.4523C10.1563 12.0162 9.90883 12.6566 9.80908 13.3275C9.70934 13.9983 9.7598 14.6829 9.95684 15.3319C10.1539 15.9809 10.4926 16.5783 10.9486 17.0809C11.4046 17.5835 11.9666 17.979 12.594 18.2388ZM9.34772 9.0025C10.005 8.34622 10.7854 7.82563 11.6442 7.47045C12.503 7.11527 13.4235 6.93247 14.353 6.93247C15.2826 6.93247 16.2031 7.11527 17.0619 7.47045C17.9207 7.82563 18.701 8.34622 19.3583 9.0025C20.0156 9.65878 20.537 10.4379 20.8928 11.2954C21.2485 12.1528 21.4316 13.0719 21.4316 14C21.4316 14.9281 21.2485 15.8472 20.8928 16.7046C20.537 17.5621 20.0156 18.3412 19.3583 18.9975C18.0308 20.3229 16.2304 21.0675 14.353 21.0675C12.4757 21.0675 10.6752 20.3229 9.34772 18.9975C8.02023 17.6721 7.27445 15.8744 7.27445 14C7.27445 12.1256 8.02023 10.3279 9.34772 9.0025ZM23.0015 7.985C23.1644 7.83159 23.2948 7.6471 23.385 7.44247C23.4752 7.23783 23.5233 7.01721 23.5266 6.79366C23.5299 6.57011 23.4882 6.34818 23.404 6.14101C23.3198 5.93384 23.1949 5.74564 23.0365 5.58755C22.8782 5.42946 22.6897 5.3047 22.4822 5.22065C22.2747 5.1366 22.0524 5.09497 21.8285 5.09823C21.6046 5.10149 21.3837 5.14957 21.1787 5.23962C20.9738 5.32967 20.789 5.45987 20.6353 5.6225C20.3365 5.93879 20.1729 6.3589 20.1792 6.79366C20.1856 7.22842 20.3614 7.6436 20.6693 7.95105C20.9773 8.25851 21.3931 8.43404 21.8285 8.44037C22.264 8.44671 22.6847 8.28336 23.0015 7.985Z" fill="white"/>
</svg>
