<svg width="27" height="26" viewBox="0 0 27 26" fill="none" xmlns="http://www.w3.org/2000/svg">
<path d="M24.543 0.00264231C24.2215 0.0284565 23.9059 0.111697 23.6086 0.249116H23.6046C23.3191 0.374011 21.962 1.00401 19.8988 1.95896L12.5052 5.39522C7.19997 7.85996 1.98484 10.2871 1.98484 10.2871L2.04693 10.2606C2.04693 10.2606 1.68737 10.391 1.31179 10.6751C1.07975 10.838 0.880088 11.0512 0.724872 11.3017C0.540585 11.6002 0.392354 12.0566 0.44744 12.5286C0.53758 13.3266 1.00631 13.8052 1.34284 14.0693C1.68337 14.3368 2.00787 14.4617 2.00787 14.4617H2.01589L6.90652 16.2799C7.12586 17.0569 8.39684 21.668 8.70231 22.7302C8.8826 23.3646 9.05787 23.7614 9.27721 24.0642C9.38338 24.219 9.50757 24.3483 9.6568 24.4522C9.73438 24.502 9.81711 24.5413 9.90319 24.5693L9.85311 24.5561C9.86813 24.5605 9.88015 24.5737 9.89117 24.5782C9.93123 24.5903 9.95827 24.5947 10.0094 24.6036C10.7836 24.8622 11.4055 24.3317 11.4055 24.3317L11.4406 24.3007L14.3281 21.3994L19.1676 25.4966L19.2778 25.5486C20.2864 26.0371 21.308 25.7652 21.8478 25.2855C22.3917 24.8025 22.603 24.1847 22.603 24.1847L22.6381 24.0852L26.3779 2.94264C26.4841 2.42096 26.5111 1.93243 26.3939 1.45827C26.273 0.978397 25.9941 0.565671 25.6117 0.301063C25.2906 0.085664 24.9183 -0.0183041 24.543 0.00264231ZM24.4419 2.26843C24.4379 2.33806 24.4499 2.33033 24.4218 2.46406V2.47622L20.7171 23.3989C20.701 23.4287 20.674 23.4939 20.5999 23.5591C20.5218 23.6276 20.4597 23.6707 20.1341 23.5282L14.2149 18.5202L10.6393 22.1167L11.3905 16.8225L21.0616 6.87517C21.4602 6.46622 21.327 6.38001 21.327 6.38001C21.3551 5.87822 20.7251 6.23301 20.7251 6.23301L8.53005 14.57L8.52604 14.5479L2.68092 12.3761V12.3716L2.6659 12.3683C2.67615 12.3646 2.68618 12.3601 2.69595 12.3551L2.728 12.3374L2.75905 12.3252C2.75905 12.3252 7.97819 9.89806 13.2835 7.43333C15.9396 6.19875 18.6158 4.95533 20.674 3.99596C22.7322 3.04212 24.2536 2.34248 24.3397 2.30491C24.4218 2.26954 24.3828 2.26954 24.4419 2.26954V2.26843Z" fill="white"/>
</svg>
