<svg width="5" height="10" viewBox="0 0 5 10" fill="none" xmlns="http://www.w3.org/2000/svg">
<path d="M4.69189 1.02235C4.80906 1.13955 4.87488 1.29849 4.87488 1.46422C4.87488 1.62995 4.80906 1.78889 4.69189 1.9061L1.59814 4.99984L4.69189 8.09358C4.80574 8.21146 4.86873 8.36934 4.86731 8.53321C4.86588 8.69708 4.80015 8.85384 4.68427 8.96972C4.56839 9.0856 4.41164 9.15133 4.24776 9.15275C4.08389 9.15418 3.92601 9.09118 3.80814 8.97733L0.272511 5.44171C0.155342 5.32451 0.0895195 5.16557 0.0895195 4.99984C0.0895195 4.83411 0.155342 4.67517 0.272511 4.55797L3.80814 1.02235C3.92534 0.905177 4.08428 0.839355 4.25001 0.839355C4.41574 0.839355 4.57468 0.905177 4.69189 1.02235Z" fill="#F9BC1A"/>
</svg>
