<svg width="29" height="25" viewBox="0 0 29 25" fill="none" xmlns="http://www.w3.org/2000/svg">
<path d="M26.7708 13.2293L28.8125 15.2856L19.2896 24.896L14.2292 19.7918L16.2708 17.7356L19.2896 20.7689L26.7708 13.2293ZM10.5833 19.7918L14.9583 24.1668H0.375V21.2502C0.375 18.0272 5.59583 15.4168 12.0417 15.4168L14.7979 15.5772L10.5833 19.7918ZM12.0417 0.833496C13.5888 0.833496 15.0725 1.44808 16.1665 2.54204C17.2604 3.636 17.875 5.11973 17.875 6.66683C17.875 8.21393 17.2604 9.69766 16.1665 10.7916C15.0725 11.8856 13.5888 12.5002 12.0417 12.5002C10.4946 12.5002 9.01084 11.8856 7.91688 10.7916C6.82291 9.69766 6.20833 8.21393 6.20833 6.66683C6.20833 5.11973 6.82291 3.636 7.91688 2.54204C9.01084 1.44808 10.4946 0.833496 12.0417 0.833496Z" fill="white"/>
</svg>
